<svg xmlns="http://www.w3.org/2000/svg" viewBox="0 0 512 512" id="bitcoin">
  <defs>
    <linearGradient id="a" x2="512" y1="256" y2="256" gradientUnits="userSpaceOnUse">
      <stop offset="0" stop-color="#cbdff4"></stop>
      <stop offset="0" stop-color="#cdd6ef"></stop>
      <stop offset="0" stop-color="#d1bce0"></stop>
      <stop offset="0" stop-color="#d993c9"></stop>
      <stop offset="0" stop-color="#e35aa9"></stop>
      <stop offset="0" stop-color="#ea3091"></stop>
      <stop offset=".944" stop-color="#4871b7"></stop>
      <stop offset="1" stop-color="#4c94d0"></stop>
      <stop offset="1" stop-color="#1d98d5"></stop>
      <stop offset="1" stop-color="#005e99"></stop>
      <stop offset="1" stop-color="#1d98d5"></stop>
      <stop offset="1" stop-color="#005d98"></stop>
    </linearGradient>
  </defs>
  <path fill="url(#a)" d="M321.225,337.708H262.273c4.831-5,7.928-12.663,7.928-21.239V284.175c0-15.026-9.5-27.25-21.189-27.25H171.976a127.779,127.779,0,0,0,48.252-217.74A127.841,127.841,0,0,0,49.972,229.937a127.138,127.138,0,0,0,48.152,26.988H21.189C9.505,256.925,0,269.149,0,284.175v32.294C0,331.5,9.505,343.72,21.189,343.72H80.148c-4.834,5-7.935,12.659-7.935,21.238v32.294c0,8.578,3.1,16.239,7.935,21.238H57.3c-11.683,0-21.188,12.224-21.188,27.249v32.3c0,15.026,9.505,27.25,21.188,27.25H285.118c11.684,0,21.189-12.224,21.189-27.25v-32.3c0-8.575-3.1-16.239-7.927-21.238h22.845c11.684,0,21.189-12.224,21.189-27.249V364.958C342.414,349.932,332.909,337.708,321.225,337.708ZM53.976,225.451A121.83,121.83,0,0,1,128.194,12.927q3.543-.2,7.063-.2A121.8,121.8,0,1,1,53.976,225.451ZM336.4,397.252c0,11.71-6.808,21.238-15.177,21.238H93.4c-8.369,0-15.177-9.528-15.177-21.238V364.958c0-11.711,6.808-21.238,15.177-21.238H321.225c8.369,0,15.177,9.527,15.177,21.238Zm166.055-76.246-28.916-.024a1.208,1.208,0,0,1-1.2-1.207V96.518A11.436,11.436,0,0,0,460.913,85.1H411.668a11.435,11.435,0,0,0-11.422,11.423V319.775a1.208,1.208,0,0,1-1.2,1.207l-28.917.024a9.539,9.539,0,0,0-7.447,15.49l66.158,82.883a9.539,9.539,0,0,0,14.912,0L509.9,336.5a9.539,9.539,0,0,0-7.447-15.49ZM138.1,214.153v-16.9h6.715a33.958,33.958,0,0,0,33.919-33.919v-1.769a33.981,33.981,0,0,0-25.33-32.817,30.883,30.883,0,0,0-15.3-56.839V54.97a3.006,3.006,0,1,0-6.012,0v16.9H105.5a3.006,3.006,0,0,0-3.006,3.006V194.245a3.006,3.006,0,0,0,3.006,3.006h26.593v16.9a3.006,3.006,0,1,0,6.012,0Zm-29.6-136.27h28.207a24.881,24.881,0,1,1,0,49.761H108.506Zm0,113.356V133.656H144.82a27.938,27.938,0,0,1,27.907,27.907v1.769a27.938,27.938,0,0,1-27.907,27.907Z"></path>
</svg>
