<svg xmlns="http://www.w3.org/2000/svg" xml:space="preserve" viewBox="0 0 6000 6000" fill-rule="evenodd" clip-rule="evenodd" stroke-linejoin="round" stroke-miterlimit="2" id="business-accounting">
  <path d="M1469.51 1161.55c-44.95 0-81.38 36.43-81.38 81.37 0 19.27 6.84 37.92 19.3 52.62l46.56-39.46a20.343 20.343 0 0 1-4.83-13.16c0-11.23 9.11-20.34 20.35-20.34v-61.03ZM1418.37 1306.23a81.418 81.418 0 0 0 51.14 18.07c43.53 0 79.35-34.26 81.29-77.75l-40.65-1.81c-.97 21.74-18.88 38.87-40.64 38.87-9.31 0-18.33-3.19-25.57-9.03l-25.57 31.65ZM1549.57 1228.37c-6.06-33.35-32.16-59.45-65.51-65.51l-5.17 28.44c21.5 3.91 38.33 20.74 42.24 42.24l28.44-5.17Z" transform="translate(-10270.737 -7253.9)scale(7.95672)" fill="#eee"></path>
  <path d="M1351.74 1065.65c-17.07-11.7-35.82-19.04-47.56-36.68-19.79-29.745-15.44-73.432 23.17-84.862 22.26-6.589 44.06 7.972 65.99 10.513 38.51 4.46 86.89-13.015 113.68-40.906 49.65-51.679-13.35-121.508 30.91-176.012 3.27-4.03 7.24-7.631 11.71-10.293 35.45-21.116 65.06 25.301 99.76 22.471 25.92-2.115 36.65-34.499 59.93-43.331 43.31-16.435 99.16 9.102 104.46 57.686 2.31 21.197-9.72 40.581-6.52 61.674-.01-.003-.02-.006-.02-.009 19.68 39.127 76.77 19.261 96.31 58.917 30.37 61.656-47.07 77.408-70.72 116.412-11.45 18.89.46 42.57-2.52 63.47l-478.58.95Z" transform="translate(-8703.68 -3302.02)scale(7.26303)" fill="#eee"></path>
  <path d="M1698.69 575.454c0-4.787 1.56-8.673 4.66-11.656 3.11-2.983 7.19-4.475 12.22-4.475 5.11 0 9.22 1.474 12.33 4.421 3.11 2.948 4.66 6.941 4.66 11.978v3.859c0 4.823-1.55 8.7-4.66 11.63-3.11 2.929-7.18 4.394-12.22 4.394-5.07 0-9.17-1.474-12.3-4.421-3.13-2.948-4.69-6.923-4.69-11.924v-3.806Zm10.29 4.127c0 2.144.62 3.868 1.85 5.172 1.23 1.304 2.85 1.956 4.85 1.956 2 0 3.59-.661 4.77-1.983 1.18-1.322 1.77-3.091 1.77-5.306v-3.966c0-2.143-.59-3.876-1.77-5.198-1.18-1.322-2.81-1.983-4.88-1.983-1.96 0-3.55.652-4.77 1.956-1.21 1.304-1.82 3.117-1.82 5.44v3.912Zm27.01 39.766c0-4.824 1.57-8.709 4.72-11.657 3.14-2.947 7.21-4.421 12.22-4.421 5.07 0 9.17 1.456 12.3 4.368 3.12 2.912 4.68 6.922 4.68 12.031v3.859c0 4.788-1.53 8.655-4.6 11.603-3.08 2.947-7.17 4.421-12.28 4.421-5.14 0-9.27-1.483-12.38-4.448-3.1-2.965-4.66-6.896-4.66-11.79v-3.966Zm10.29 4.18c0 1.965.64 3.644 1.93 5.038 1.29 1.393 2.89 2.09 4.82 2.09 4.36 0 6.54-2.412 6.54-7.235v-4.073c0-2.144-.61-3.868-1.82-5.172-1.21-1.304-2.82-1.956-4.82-1.956-2.01 0-3.61.652-4.83 1.956-1.21 1.304-1.82 3.082-1.82 5.333v4.019Zm-27.55 9.111-7.55-4.073 38.1-60.989 7.56 4.073-38.11 60.989Z" transform="matrix(10.54614 0 0 12.7071 -13354.692 -5636.874)" fill="#eee" fill-rule="nonzero"></path>
  <g transform="translate(-10473.125 -4254.329)scale(8.16452)">
    <path d="M1826.95 1063.05c.53-6.86 2.82-13.69 4.99-20.17 5.79-17.25 14.13-32.74 28.91-43.864 7.18-5.402 16.92-10.461 26.23-9.185 4.41.603 9.33 3.149 9.11 8.246-.38 9.113-11.31 16.233-17.99 20.663-16.32 10.83-46.62 22.56-51.25 44.31Z" fill="#6993a4"></path>
    <clipPath id="a">
      <path d="M1826.95 1063.05c.53-6.86 2.82-13.69 4.99-20.17 5.79-17.25 14.13-32.74 28.91-43.864 7.18-5.402 16.92-10.461 26.23-9.185 4.41.603 9.33 3.149 9.11 8.246-.38 9.113-11.31 16.233-17.99 20.663-16.32 10.83-46.62 22.56-51.25 44.31Z"></path>
    </clipPath>
    <g clip-path="url(#a)">
      <path d="M1855.6 999.788c1.04 2.592.6 5.662.06 8.312-.48 2.39-1.15 4.82-2.38 6.94-4.46 7.66-13.84 10.88-22.14 12.14-3.75.57-9.76.95-12.7-2.13-2.02-2.12-.56-4.16-.44-6.54.03-.63-.47-.78-1-.62-2.87.84-5.33 4.93-6.87 7.2-4.62 6.85-7.57 15.14-8.79 23.29-.43 2.87-1.07 6.88.78 9.42 2.32 3.19 7.6.75 10.29-.51.78-.37 1.56-.76 2.33-1.16.89-.46 1.78-.94 2.65-1.42 1.37-.75 2.71-1.55 4.04-2.35 8.13-4.86 46.98-25.05 52.1-34.6 5.34-9.97-8.7-14.59-17.93-17.972Z" transform="translate(-337.245 -216.062)scale(1.20146)" fill="#477282"></path>
    </g>
  </g>
  <g transform="rotate(41.875 11782.118 -3667.01)scale(6.22134)">
    <path d="M1826.95 1063.05c.53-6.86 2.82-13.69 4.99-20.17 5.79-17.25 14.13-32.74 28.91-43.864 7.18-5.402 16.92-10.461 26.23-9.185 4.41.603 9.33 3.149 9.11 8.246-.38 9.113-11.31 16.233-17.99 20.663-16.32 10.83-46.62 22.56-51.25 44.31Z" fill="#6993a4"></path>
    <clipPath id="b">
      <path d="M1826.95 1063.05c.53-6.86 2.82-13.69 4.99-20.17 5.79-17.25 14.13-32.74 28.91-43.864 7.18-5.402 16.92-10.461 26.23-9.185 4.41.603 9.33 3.149 9.11 8.246-.38 9.113-11.31 16.233-17.99 20.663-16.32 10.83-46.62 22.56-51.25 44.31Z"></path>
    </clipPath>
    <g clip-path="url(#b)">
      <path d="M1855.6 999.788c1.04 2.592.6 5.662.06 8.312-.48 2.39-1.15 4.82-2.38 6.94-4.46 7.66-13.84 10.88-22.14 12.14-3.75.57-9.76.95-12.7-2.13-2.02-2.12-.56-4.16-.44-6.54.03-.63-.47-.78-1-.62-2.87.84-5.33 4.93-6.87 7.2-4.62 6.85-7.57 15.14-8.79 23.29-.43 2.87-1.07 6.88.78 9.42 2.32 3.19 7.6.75 10.29-.51.78-.37 1.56-.76 2.33-1.16.89-.46 1.78-.94 2.65-1.42 1.37-.75 2.71-1.55 4.04-2.35 8.13-4.86 46.98-25.05 52.1-34.6 5.34-9.97-8.7-14.59-17.93-17.972Z" transform="translate(-337.245 -216.062)scale(1.20146)" fill="#477282"></path>
    </g>
  </g>
  <g transform="rotate(-25.076 2993.162 16984.59)scale(5.40854)">
    <path d="M1826.95 1063.05c.53-6.86 2.82-13.69 4.99-20.17 5.79-17.25 14.13-32.74 28.91-43.864 7.18-5.402 16.92-10.461 26.23-9.185 4.41.603 9.33 3.149 9.11 8.246-.38 9.113-11.31 16.233-17.99 20.663-16.32 10.83-46.62 22.56-51.25 44.31Z" fill="#6993a4"></path>
    <clipPath id="c">
      <path d="M1826.95 1063.05c.53-6.86 2.82-13.69 4.99-20.17 5.79-17.25 14.13-32.74 28.91-43.864 7.18-5.402 16.92-10.461 26.23-9.185 4.41.603 9.33 3.149 9.11 8.246-.38 9.113-11.31 16.233-17.99 20.663-16.32 10.83-46.62 22.56-51.25 44.31Z"></path>
    </clipPath>
    <g clip-path="url(#c)">
      <path d="M1855.6 999.788c1.04 2.592.6 5.662.06 8.312-.48 2.39-1.15 4.82-2.38 6.94-4.46 7.66-13.84 10.88-22.14 12.14-3.75.57-9.76.95-12.7-2.13-2.02-2.12-.56-4.16-.44-6.54.03-.63-.47-.78-1-.62-2.87.84-5.33 4.93-6.87 7.2-4.62 6.85-7.57 15.14-8.79 23.29-.43 2.87-1.07 6.88.78 9.42 2.32 3.19 7.6.75 10.29-.51.78-.37 1.56-.76 2.33-1.16.89-.46 1.78-.94 2.65-1.42 1.37-.75 2.71-1.55 4.04-2.35 8.13-4.86 46.98-25.05 52.1-34.6 5.34-9.97-8.7-14.59-17.93-17.972Z" transform="translate(-337.245 -216.062)scale(1.20146)" fill="#477282"></path>
    </g>
  </g>
  <g transform="matrix(-8.16452 0 0 8.16452 19318.245 -4254.329)">
    <path d="M1826.95 1063.05c.53-6.86 2.82-13.69 4.99-20.17 5.79-17.25 14.13-32.74 28.91-43.864 7.18-5.402 16.92-10.461 26.23-9.185 4.41.603 9.33 3.149 9.11 8.246-.38 9.113-11.31 16.233-17.99 20.663-16.32 10.83-46.62 22.56-51.25 44.31Z" fill="#6993a4"></path>
    <clipPath id="d">
      <path d="M1826.95 1063.05c.53-6.86 2.82-13.69 4.99-20.17 5.79-17.25 14.13-32.74 28.91-43.864 7.18-5.402 16.92-10.461 26.23-9.185 4.41.603 9.33 3.149 9.11 8.246-.38 9.113-11.31 16.233-17.99 20.663-16.32 10.83-46.62 22.56-51.25 44.31Z"></path>
    </clipPath>
    <g clip-path="url(#d)">
      <path d="M1855.6 999.788c1.04 2.592.6 5.662.06 8.312-.48 2.39-1.15 4.82-2.38 6.94-4.46 7.66-13.84 10.88-22.14 12.14-3.75.57-9.76.95-12.7-2.13-2.02-2.12-.56-4.16-.44-6.54.03-.63-.47-.78-1-.62-2.87.84-5.33 4.93-6.87 7.2-4.62 6.85-7.57 15.14-8.79 23.29-.43 2.87-1.07 6.88.78 9.42 2.32 3.19 7.6.75 10.29-.51.78-.37 1.56-.76 2.33-1.16.89-.46 1.78-.94 2.65-1.42 1.37-.75 2.71-1.55 4.04-2.35 8.13-4.86 46.98-25.05 52.1-34.6 5.34-9.97-8.7-14.59-17.93-17.972Z" transform="translate(-337.245 -216.062)scale(1.20146)" fill="#477282"></path>
    </g>
  </g>
  <g transform="matrix(10.83078 0 0 10.53759 -15366.123 -6803.684)">
    <path d="M1830.61 1062.95c-.26-10.01-.87-20.78.25-31.11 1.07-9.78 3.69-19.17 9.96-26.97 6.79-8.459 16.47-13.765 25.14-19.935 9.65-6.873 18.1-14.74 21.35-27.711.99-3.91 1.36-7.975.98-11.995-.41-4.286-1.79-8.419-3.64-12.283-.89-1.862-3.09-2.627-4.9-1.709-1.81.918-2.56 3.175-1.66 5.036 1.46 3.054 2.59 6.308 2.92 9.696.3 3.143-.01 6.319-.78 9.376-2.78 11.05-10.21 17.553-18.44 23.408-9.21 6.558-19.4 12.339-26.62 21.327-14.03 17.48-12.43 41.85-11.88 63.07.06 2.08 1.74 3.72 3.76 3.66 2.02-.05 3.61-1.78 3.56-3.86Z" fill="#6993a4"></path>
    <clipPath id="e">
      <path d="M1830.61 1062.95c-.26-10.01-.87-20.78.25-31.11 1.07-9.78 3.69-19.17 9.96-26.97 6.79-8.459 16.47-13.765 25.14-19.935 9.65-6.873 18.1-14.74 21.35-27.711.99-3.91 1.36-7.975.98-11.995-.41-4.286-1.79-8.419-3.64-12.283-.89-1.862-3.09-2.627-4.9-1.709-1.81.918-2.56 3.175-1.66 5.036 1.46 3.054 2.59 6.308 2.92 9.696.3 3.143-.01 6.319-.78 9.376-2.78 11.05-10.21 17.553-18.44 23.408-9.21 6.558-19.4 12.339-26.62 21.327-14.03 17.48-12.43 41.85-11.88 63.07.06 2.08 1.74 3.72 3.76 3.66 2.02-.05 3.61-1.78 3.56-3.86Z"></path>
    </clipPath>
    <g clip-path="url(#e)">
      <path d="M1847.02 924.905c5.25 5.935 2.64 36.785 5.98 43.864.79 1.693 1.42 7.919 3.45 8.598 1.57.522 3.33-1.597 4.19-2.574 3.06-3.452 5.16-7.904 7.03-12.068 4.85-10.735 8.71-23.987 7.13-35.85-.26-2.003-.72-4.053-1.52-5.914-3.52-8.121-12.71-5.808-18.62-2.034-2.73 1.749-5.23 3.807-7.64 5.978Z" transform="matrix(.89406 -.14872 .1447 .91894 83.332 350.673)" fill="#477282"></path>
    </g>
  </g>
  <g transform="translate(-19385.066 -9086.923)scale(12.98068)">
    <circle cx="1873.49" cy="922.267" r="28.654" fill="#f29f05"></circle>
    <clipPath id="f">
      <circle cx="1873.49" cy="922.267" r="28.654"></circle>
    </clipPath>
    <g clip-path="url(#f)">
      <path d="M1078.06 1036.13c3.78 18.66 2.57 41.21-14.47 53.1a42.774 42.774 0 0 1-10.56 5.33c-9.42 3.22-20.72 3.17-29.76-1.21-2.66-1.28-5.19-2.91-7.34-4.94-1.35-1.27-2.69-3.39-4.37-4.22-1.67-.83-2.13 1.29-2.03 2.49.36 4.52 3.42 9 6.17 12.4 10.58 13.09 28.05 16.93 43.83 11.83 27.21-8.79 41.45-49.94 18.53-74.78Z" transform="translate(1082.17 116.823)scale(.75569)" fill="#d98a00"></path>
    </g>
  </g>
  <path d="m1886.04 843.909 1.66 10.676 10.68 1.659-10.68 1.658-1.66 10.676-1.66-10.676-10.67-1.658 10.67-1.659 1.66-10.676Z" transform="translate(-11512.121 -5139.755)scale(8.85618)" fill="#f29f05"></path>
  <path d="m1886.04 843.909 1.66 10.676 10.68 1.659-10.68 1.658-1.66 10.676-1.66-10.676-10.67-1.658 10.67-1.659 1.66-10.676Z" transform="translate(-4467.547 -2117.828)scale(5.19931)" fill="#f29f05"></path>
  <path d="m1886.04 843.909 1.66 10.676 10.68 1.659-10.68 1.658-1.66 10.676-1.66-10.676-10.67-1.658 10.67-1.659 1.66-10.676Z" transform="translate(-4467.547 -1876.594)scale(5.19931)" fill="#f29f05"></path>
  <path d="M1754.55 918.17c0-2.929-.81-5.261-2.44-6.993-1.62-1.733-4.38-3.332-8.28-4.797-3.89-1.465-7.25-2.921-10.07-4.368-2.83-1.447-5.25-3.108-7.27-4.984a20.055 20.055 0 0 1-4.71-6.619c-1.13-2.536-1.69-5.555-1.69-9.057 0-6.038 1.93-10.986 5.79-14.845 3.86-3.859 8.98-6.109 15.38-6.753v-11.468h8.57v11.629c6.33.893 11.28 3.528 14.85 7.905 3.57 4.377 5.36 10.049 5.36 17.016h-15.49c0-4.288-.89-7.494-2.65-9.62-1.77-2.126-4.14-3.189-7.1-3.189-2.93 0-5.2.831-6.81 2.492-1.61 1.662-2.41 3.957-2.41 6.887 0 2.715.78 4.895 2.36 6.538 1.57 1.644 4.49 3.323 8.76 5.038 4.27 1.715 7.78 3.332 10.53 4.85 2.75 1.518 5.07 3.233 6.97 5.145a19.971 19.971 0 0 1 4.34 6.538c1 2.448 1.5 5.297 1.5 8.548 0 6.074-1.9 11.005-5.68 14.792-3.79 3.787-9.01 6.02-15.65 6.699v10.665h-8.52v-10.612c-7.33-.786-13-3.385-17.02-7.797-4.02-4.413-6.03-10.281-6.03-17.605h15.49c0 4.251 1.01 7.511 3.03 9.78 2.02 2.269 4.92 3.403 8.71 3.403 3.14 0 5.62-.83 7.45-2.492 1.82-1.661 2.73-3.903 2.73-6.726Z" transform="rotate(-30 4072.226 9587.797)scale(4.68582)" fill="#fff" fill-rule="nonzero"></path>
  <path d="M1358.95 1066.85h457.854v8.317H1358.95z" transform="matrix(8.01519 0 0 2.62564 -9827.631 1626.026)" fill="#03222f"></path>
  <path d="M1358.95 1066.85h457.854v8.317H1358.95z" transform="matrix(.77819 0 0 2.7904 -460.254 1452.999)" fill="#03222f"></path>
  <g transform="translate(-8703.68 -3302.02)scale(7.26303)">
    <g transform="rotate(-41.607 1393.825 758.707)">
      <path d="M1551.32 896.241c-17.59 6.395-90.51 55.204-90.51 55.204s-49.12-81.077-72.42-96.143c-14.22-9.197-37.36 9.709-22.81 51.689 14.56 41.999 53.72 95.039 85.19 98.389 33.35 3.54 115.6-92.307 115.6-92.307s-7.97-19.403-15.05-16.832Z" fill="#fad8ba"></path>
      <clipPath id="g">
        <path d="M1551.32 896.241c-17.59 6.395-90.51 55.204-90.51 55.204s-49.12-81.077-72.42-96.143c-14.22-9.197-37.36 9.709-22.81 51.689 14.56 41.999 53.72 95.039 85.19 98.389 33.35 3.54 115.6-92.307 115.6-92.307s-7.97-19.403-15.05-16.832Z"></path>
      </clipPath>
      <g clip-path="url(#g)">
        <path d="M1628.87 869.598c-4.98 5.942-13.77 9.608-20.59 12.711-22.15 10.078-48.78 13.022-72.35 6.254-11.29-3.244-20.76-9.004-30.85-14.78-3.48-1.993-8.17-4.328-11.59-.946-4.49 4.431-4.24 13.054-3.34 18.694 2.7 17.032 15.65 31.157 31.9 36.402 32.76 10.581 82.9-35.891 106.82-58.335Z" transform="rotate(41.607 1393.818 758.705)" fill="#d7b699"></path>
        <path d="M1367 932.4c7.44-6.586 20.41-7.211 29.38-4.6 6.25 1.818 13.07 5.393 19.76 4.673 8.74-.941 9.24-10.834 15.81-14.663 2.43-1.412 5.26-1.048 7.89-1.744 4.77-1.268 6.67-5.217 7.58-9.707 4.83-23.996-19.72-48.637-43.46-57.973-11.4-4.481-24.67-7.027-33.83 3.116-5.46 6.052-7.49 14.564-8.53 22.429-1.92 14.506 3.53 44.046 5.4 58.469Z" transform="rotate(-5.855 1386.718 943.128)" fill="#f25c05"></path>
        <path d="M1514.64 879.174c-4.26-2.183-15.5-9.27-19.61-13.05-2.06-1.892-3.96-3.942-5.79-6.055-.32-.367-1.24-1.839-1.89-1.434-.71.437-.25 2.371-.17 2.982.4 3.194.94 6.379 1.48 9.552 1.34 7.896 3.36 21.636 11.7 16.759 3.82-2.238 9.98-5.01 14.28-8.754Z" transform="rotate(41.607 1393.818 758.705)" fill="#d23f00"></path>
      </g>
    </g>
    <g transform="rotate(-104.798 1442 942.944)">
      <path d="M1335.82 995.399c-9.83-18.279-35.52 0-35.52 0-6.96 23.201-13.61 45.051-22.81 69.441-1.21 5.11 36.46-1 36.56-16.84.2-34.05 26.33-44.12 21.77-52.601Z" fill="#f29f05"></path>
      <clipPath id="h">
        <path d="M1335.82 995.399c-9.83-18.279-35.52 0-35.52 0-6.96 23.201-13.61 45.051-22.81 69.441-1.21 5.11 36.46-1 36.56-16.84.2-34.05 26.33-44.12 21.77-52.601Z"></path>
      </clipPath>
      <g clip-path="url(#h)">
        <path d="M1512.45 1030.23c1.13 6.18 4.83 13 9.86 16.82 7.22 5.48 17.63 7.75 26.39 9.28 7.29 1.27 16.85 1.8 22.86-3.4 5.6-4.86 5-12.83 1.75-18.85-5.75-10.68-17.95-17.32-29.76-18.49-8.28-.83-23.49 11.3-31.1 14.64Z" transform="rotate(104.798 1441.999 942.945)" fill="#b16800"></path>
      </g>
    </g>
    <g transform="rotate(-104.798 1476.286 1066.663)scale(1.11481)">
      <path d="M1413.24 940.074c-26.79 22.762-19.68 71.046-19.68 71.046l-52.28-10.86c-13.19 10.76-21.49 31.46-17.11 54.99 0 0 72.07 17.82 99.34 8.9 47.21-15.45 53.67-97.393 53.67-97.393s-52.01-36.815-63.94-26.683Z" fill="#023341"></path>
      <clipPath id="i">
        <path d="M1413.24 940.074c-26.79 22.762-19.68 71.046-19.68 71.046l-52.28-10.86c-13.19 10.76-21.49 31.46-17.11 54.99 0 0 72.07 17.82 99.34 8.9 47.21-15.45 53.67-97.393 53.67-97.393s-52.01-36.815-63.94-26.683Z"></path>
      </clipPath>
      <g clip-path="url(#i)">
        <path d="M1542.51 900.095c-5.18 2.328-10.01 5.677-14.38 9.269-3.45 2.826-6.47 5.794-8.75 9.648-1.79 3.037-2.97 6.326-3.72 9.763-1.77 8.084-.44 15.577 5.36 21.663 6.94 7.299 16.14 9.668 16.63 21.365.45 10.863-3.1 21.584-5.9 31.927-2.2 8.15-4.27 17.4-1.15 25.6 1.61 4.21 4.71 7.73 9.01 9.29 5.37 1.96 12.66 1.52 14.65 8.26 2.28 7.68-8.76 10.63-14.22 10.62-15.76-.04-28.84-13.74-38.45-24.67-23.98-27.26-48.23-64.151-38.75-101.962 6.01-23.955 26.16-51.757 53.79-49.805 4.83.34 21.42 17.229 25.88 19.032Z" transform="rotate(104.798 1324.25 956.82)scale(.89701)" fill="#03222f"></path>
      </g>
    </g>
    <path d="M1721.83 830.642c0-4.053-1.84-7.94-5.11-10.806-3.28-2.866-7.72-4.476-12.36-4.476h-197.47c-4.63 0-9.07 1.61-12.35 4.476-3.28 2.866-5.12 6.753-5.12 10.806v224.638c0 4.05 1.84 7.93 5.12 10.8 3.28 2.87 7.72 4.48 12.35 4.48h197.47c4.64 0 9.08-1.61 12.36-4.48 3.27-2.87 5.11-6.75 5.11-10.8V830.642Z" transform="matrix(1.04027 0 0 1.18937 5.233 -201.089)" fill="#023341"></path>
    <path d="M1721.83 830.642c0-4.053-1.84-7.94-5.11-10.806-3.28-2.866-7.72-4.476-12.36-4.476h-197.47c-4.63 0-9.07 1.61-12.35 4.476-3.28 2.866-5.12 6.753-5.12 10.806v224.638c0 4.05 1.84 7.93 5.12 10.8 3.28 2.87 7.72 4.48 12.35 4.48h197.47c4.64 0 9.08-1.61 12.36-4.48 3.27-2.87 5.11-6.75 5.11-10.8V830.642Z" transform="matrix(1.04027 0 0 1.18937 -8.805 -195.022)" fill="#6993a4"></path>
    <path d="M1721.83 896.749c0-44.95-8.4-81.389-18.77-81.389H1508.2c-10.37 0-18.78 36.439-18.78 81.389v92.419c0 44.952 8.41 81.392 18.78 81.392h194.86c10.37 0 18.77-36.44 18.77-81.392v-92.419Z" transform="matrix(.968 0 0 .22332 107.23 610.84)" fill="#fff"></path>
    <path d="M1651.81 890.036c0-6.318-5.12-11.439-11.44-11.439h-20.9c-6.32 0-11.44 5.121-11.44 11.439v20.897c0 6.318 5.12 11.439 11.44 11.439h20.9c6.32 0 11.44-5.121 11.44-11.439v-20.897Z" transform="translate(254.645 162.204)scale(.81453)" fill="#023341"></path>
    <path d="M1651.81 890.036c0-6.318-5.12-11.439-11.44-11.439h-20.9c-6.32 0-11.44 5.121-11.44 11.439v20.897c0 6.318 5.12 11.439 11.44 11.439h20.9c6.32 0 11.44-5.121 11.44-11.439v-20.897Z" transform="translate(254.645 212.645)scale(.81453)" fill="#023341"></path>
    <path d="M1651.81 890.036c0-6.318-5.12-11.439-11.44-11.439h-20.9c-6.32 0-11.44 5.121-11.44 11.439v20.897c0 6.318 5.12 11.439 11.44 11.439h20.9c6.32 0 11.44-5.121 11.44-11.439v-20.897Z" transform="translate(254.645 263.086)scale(.81453)" fill="#023341"></path>
    <path d="M1651.81 890.036c0-6.318-5.12-11.439-11.44-11.439h-20.9c-6.32 0-11.44 5.121-11.44 11.439v20.897c0 6.318 5.12 11.439 11.44 11.439h20.9c6.32 0 11.44-5.121 11.44-11.439v-20.897Z" transform="translate(254.645 313.528)scale(.81453)" fill="#023341"></path>
    <path d="M1651.81 890.036c0-6.318-5.12-11.439-11.44-11.439h-20.9c-6.32 0-11.44 5.121-11.44 11.439v20.897c0 6.318 5.12 11.439 11.44 11.439h20.9c6.32 0 11.44-5.121 11.44-11.439v-20.897Z" transform="translate(309.836 162.204)scale(.81453)" fill="#023341"></path>
    <path d="M1651.81 890.036c0-6.318-5.12-11.439-11.44-11.439h-20.9c-6.32 0-11.44 5.121-11.44 11.439v20.897c0 6.318 5.12 11.439 11.44 11.439h20.9c6.32 0 11.44-5.121 11.44-11.439v-20.897Z" transform="translate(309.836 212.645)scale(.81453)" fill="#023341"></path>
    <path d="M1651.81 890.036c0-6.318-5.12-11.439-11.44-11.439h-20.9c-6.32 0-11.44 5.121-11.44 11.439v20.897c0 6.318 5.12 11.439 11.44 11.439h20.9c6.32 0 11.44-5.121 11.44-11.439v-20.897Z" transform="translate(309.836 263.086)scale(.81453)" fill="#023341"></path>
    <path d="M1651.81 890.036c0-6.318-5.12-11.439-11.44-11.439h-20.9c-6.32 0-11.44 5.121-11.44 11.439v20.897c0 6.318 5.12 11.439 11.44 11.439h20.9c6.32 0 11.44-5.121 11.44-11.439v-20.897Z" transform="translate(309.836 313.528)scale(.81453)" fill="#023341"></path>
    <path d="M1651.81 890.036c0-6.318-5.12-11.439-11.44-11.439h-20.9c-6.32 0-11.44 5.121-11.44 11.439v20.897c0 6.318 5.12 11.439 11.44 11.439h20.9c6.32 0 11.44-5.121 11.44-11.439v-20.897Z" transform="translate(365.028 162.204)scale(.81453)" fill="#023341"></path>
    <path d="M1651.81 890.036c0-6.318-5.12-11.439-11.44-11.439h-20.9c-6.32 0-11.44 5.121-11.44 11.439v20.897c0 6.318 5.12 11.439 11.44 11.439h20.9c6.32 0 11.44-5.121 11.44-11.439v-20.897Z" transform="translate(365.028 212.645)scale(.81453)" fill="#023341"></path>
    <path d="M1651.81 890.036c0-6.318-5.12-11.439-11.44-11.439h-20.9c-6.32 0-11.44 5.121-11.44 11.439v20.897c0 6.318 5.12 11.439 11.44 11.439h20.9c6.32 0 11.44-5.121 11.44-11.439v-20.897Z" transform="translate(365.028 263.086)scale(.81453)" fill="#023341"></path>
    <path d="M1651.81 890.036c0-6.318-5.12-11.439-11.44-11.439h-20.9c-6.32 0-11.44 5.121-11.44 11.439v20.897c0 6.318 5.12 11.439 11.44 11.439h20.9c6.32 0 11.44-5.121 11.44-11.439v-20.897Z" transform="translate(365.028 313.528)scale(.81453)" fill="#023341"></path>
    <path d="M1651.81 890.036c0-6.318-5.12-11.439-11.44-11.439h-20.9c-6.32 0-11.44 5.121-11.44 11.439v20.897c0 6.318 5.12 11.439 11.44 11.439h20.9c6.32 0 11.44-5.121 11.44-11.439v-20.897Z" transform="translate(420.22 162.204)scale(.81453)" fill="#023341"></path>
    <path d="M1651.81 890.036c0-6.318-5.12-11.439-11.44-11.439h-20.9c-6.32 0-11.44 5.121-11.44 11.439v20.897c0 6.318 5.12 11.439 11.44 11.439h20.9c6.32 0 11.44-5.121 11.44-11.439v-20.897Z" transform="translate(420.22 212.645)scale(.81453)" fill="#023341"></path>
    <path d="M1651.81 883.315c0-2.606-5.12-4.718-11.44-4.718h-20.9c-6.32 0-11.44 2.112-11.44 4.718v34.339c0 2.606 5.12 4.718 11.44 4.718h20.9c6.32 0 11.44-2.112 11.44-4.718v-34.339Z" transform="matrix(.81453 0 0 1.97478 420.22 -756.66)" fill="#023341"></path>
    <path d="M1651.81 890.036c0-6.318-5.12-11.439-11.44-11.439h-20.9c-6.32 0-11.44 5.121-11.44 11.439v20.897c0 6.318 5.12 11.439 11.44 11.439h20.9c6.32 0 11.44-5.121 11.44-11.439v-20.897Z" transform="translate(250.955 156.803)scale(.81453)" fill="#fff"></path>
    <path d="M1651.81 890.036c0-6.318-5.12-11.439-11.44-11.439h-20.9c-6.32 0-11.44 5.121-11.44 11.439v20.897c0 6.318 5.12 11.439 11.44 11.439h20.9c6.32 0 11.44-5.121 11.44-11.439v-20.897Z" transform="translate(250.955 207.244)scale(.81453)" fill="#fff"></path>
    <path d="M1651.81 890.036c0-6.318-5.12-11.439-11.44-11.439h-20.9c-6.32 0-11.44 5.121-11.44 11.439v20.897c0 6.318 5.12 11.439 11.44 11.439h20.9c6.32 0 11.44-5.121 11.44-11.439v-20.897Z" transform="translate(250.955 257.685)scale(.81453)" fill="#fff"></path>
    <path d="M1651.81 890.036c0-6.318-5.12-11.439-11.44-11.439h-20.9c-6.32 0-11.44 5.121-11.44 11.439v20.897c0 6.318 5.12 11.439 11.44 11.439h20.9c6.32 0 11.44-5.121 11.44-11.439v-20.897Z" transform="translate(250.955 308.126)scale(.81453)" fill="#fff"></path>
    <path d="M1651.81 890.036c0-6.318-5.12-11.439-11.44-11.439h-20.9c-6.32 0-11.44 5.121-11.44 11.439v20.897c0 6.318 5.12 11.439 11.44 11.439h20.9c6.32 0 11.44-5.121 11.44-11.439v-20.897Z" transform="translate(306.147 156.803)scale(.81453)" fill="#fff"></path>
    <path d="M1651.81 890.036c0-6.318-5.12-11.439-11.44-11.439h-20.9c-6.32 0-11.44 5.121-11.44 11.439v20.897c0 6.318 5.12 11.439 11.44 11.439h20.9c6.32 0 11.44-5.121 11.44-11.439v-20.897Z" transform="translate(306.147 207.244)scale(.81453)" fill="#fff"></path>
    <path d="M1651.81 890.036c0-6.318-5.12-11.439-11.44-11.439h-20.9c-6.32 0-11.44 5.121-11.44 11.439v20.897c0 6.318 5.12 11.439 11.44 11.439h20.9c6.32 0 11.44-5.121 11.44-11.439v-20.897Z" transform="translate(306.147 257.685)scale(.81453)" fill="#fff"></path>
    <path d="M1651.81 890.036c0-6.318-5.12-11.439-11.44-11.439h-20.9c-6.32 0-11.44 5.121-11.44 11.439v20.897c0 6.318 5.12 11.439 11.44 11.439h20.9c6.32 0 11.44-5.121 11.44-11.439v-20.897Z" transform="translate(306.147 308.126)scale(.81453)" fill="#fff"></path>
    <path d="M1651.81 890.036c0-6.318-5.12-11.439-11.44-11.439h-20.9c-6.32 0-11.44 5.121-11.44 11.439v20.897c0 6.318 5.12 11.439 11.44 11.439h20.9c6.32 0 11.44-5.121 11.44-11.439v-20.897Z" transform="translate(361.339 156.803)scale(.81453)" fill="#fff"></path>
    <path d="M1651.81 890.036c0-6.318-5.12-11.439-11.44-11.439h-20.9c-6.32 0-11.44 5.121-11.44 11.439v20.897c0 6.318 5.12 11.439 11.44 11.439h20.9c6.32 0 11.44-5.121 11.44-11.439v-20.897Z" transform="translate(361.339 207.244)scale(.81453)" fill="#fff"></path>
    <path d="M1651.81 890.036c0-6.318-5.12-11.439-11.44-11.439h-20.9c-6.32 0-11.44 5.121-11.44 11.439v20.897c0 6.318 5.12 11.439 11.44 11.439h20.9c6.32 0 11.44-5.121 11.44-11.439v-20.897Z" transform="translate(361.339 257.685)scale(.81453)" fill="#fff"></path>
    <path d="M1651.81 890.036c0-6.318-5.12-11.439-11.44-11.439h-20.9c-6.32 0-11.44 5.121-11.44 11.439v20.897c0 6.318 5.12 11.439 11.44 11.439h20.9c6.32 0 11.44-5.121 11.44-11.439v-20.897Z" transform="translate(361.339 308.126)scale(.81453)" fill="#fff"></path>
    <path d="M1651.81 890.036c0-6.318-5.12-11.439-11.44-11.439h-20.9c-6.32 0-11.44 5.121-11.44 11.439v20.897c0 6.318 5.12 11.439 11.44 11.439h20.9c6.32 0 11.44-5.121 11.44-11.439v-20.897Z" transform="translate(416.53 156.803)scale(.81453)" fill="#fff"></path>
    <path d="M1651.81 890.036c0-6.318-5.12-11.439-11.44-11.439h-20.9c-6.32 0-11.44 5.121-11.44 11.439v20.897c0 6.318 5.12 11.439 11.44 11.439h20.9c6.32 0 11.44-5.121 11.44-11.439v-20.897Z" transform="translate(416.53 207.244)scale(.81453)" fill="#fff"></path>
    <path d="M1651.81 883.334c0-1.256-1.21-2.461-3.35-3.35-2.15-.888-5.06-1.387-8.09-1.387h-20.9c-3.03 0-5.94.499-8.09 1.387-2.14.889-3.35 2.094-3.35 3.35v34.301c0 1.256 1.21 2.461 3.35 3.35 2.15.888 5.06 1.387 8.09 1.387h20.9c3.03 0 5.94-.499 8.09-1.387 2.14-.889 3.35-2.094 3.35-3.35v-34.301Z" transform="matrix(.81453 0 0 1.96679 416.53 -754.69)" fill="#fff"></path>
    <path d="M1629.67 785.108c0 10.79-2.23 19.043-6.7 24.76-4.47 5.716-11 8.575-19.61 8.575-8.51 0-15.01-2.805-19.51-8.414-4.5-5.61-6.81-13.649-6.92-24.117v-14.363c0-10.897 2.26-19.168 6.78-24.813 4.52-5.645 11.04-8.468 19.54-8.468s15 2.796 19.51 8.387c4.5 5.592 6.8 13.622 6.91 24.09v14.363Zm-15.49-15.756c0-6.467-.88-11.174-2.65-14.122-1.77-2.947-4.53-4.421-8.28-4.421-3.65 0-6.33 1.402-8.07 4.207-1.73 2.804-2.65 7.19-2.76 13.157v18.972c0 6.359.87 11.084 2.6 14.175 1.74 3.09 4.51 4.636 8.34 4.636 3.78 0 6.52-1.483 8.2-4.449 1.68-2.965 2.55-7.503 2.62-13.612v-18.543ZM1641.57 809.761c0-2.466.83-4.466 2.49-6.003 1.66-1.536 3.74-2.304 6.24-2.304 2.54 0 4.64.768 6.3 2.304 1.66 1.537 2.49 3.537 2.49 6.003 0 2.429-.82 4.403-2.46 5.922-1.65 1.518-3.75 2.277-6.33 2.277-2.53 0-4.62-.759-6.27-2.277-1.64-1.519-2.46-3.493-2.46-5.922ZM1724.53 785.108c0 10.79-2.23 19.043-6.7 24.76-4.47 5.716-11 8.575-19.62 8.575-8.5 0-15-2.805-19.5-8.414-4.51-5.61-6.81-13.649-6.92-24.117v-14.363c0-10.897 2.26-19.168 6.78-24.813 4.52-5.645 11.03-8.468 19.54-8.468 8.5 0 15 2.796 19.51 8.387 4.5 5.592 6.8 13.622 6.91 24.09v14.363Zm-15.49-15.756c0-6.467-.88-11.174-2.65-14.122-1.77-2.947-4.53-4.421-8.28-4.421-3.65 0-6.34 1.402-8.07 4.207-1.73 2.804-2.65 7.19-2.76 13.157v18.972c0 6.359.87 11.084 2.6 14.175 1.73 3.09 4.51 4.636 8.33 4.636 3.79 0 6.53-1.483 8.2-4.449 1.68-2.965 2.56-7.503 2.63-13.612v-18.543ZM1780.8 788.002h8.84v12.487h-8.84v16.882h-15.49v-16.882h-31.99l-.7-9.754 32.53-51.395h15.65v48.662Zm-32.74 0h17.25v-27.547l-1.02 1.769-16.23 25.778Z" transform="translate(1096.356 538.004)scale(.36402)" fill="#023341" fill-rule="nonzero"></path>
    <g transform="translate(27.917 .678)">
      <path d="M1335.82 995.399c-9.83-18.279-35.52 0-35.52 0-6.96 23.201-13.61 45.051-22.81 69.441-1.21 5.11 36.46-1 36.56-16.84.2-34.05 26.33-44.12 21.77-52.601Z" fill="#f29f05"></path>
      <clipPath id="j">
        <path d="M1335.82 995.399c-9.83-18.279-35.52 0-35.52 0-6.96 23.201-13.61 45.051-22.81 69.441-1.21 5.11 36.46-1 36.56-16.84.2-34.05 26.33-44.12 21.77-52.601Z"></path>
      </clipPath>
      <g clip-path="url(#j)">
        <path d="M1371.79 989.226c-16.61.716-35.12 13.124-40.42 29.134-2.88 8.68-.5 18.53-6.82 25.92-2.19 2.57-5.17 4.59-8.49 5.36-2.08.48-4.2.26-6.22 1.04-4.13 1.59-7.51 5.45-9.09 9.51-.67 1.73-1.14 3.57-1.11 5.44.2 11.57 13.82 13.35 22.69 11.92 18.81-3.04 34.59-16.98 45.31-32.05 8.45-11.87 2.3-41.88 4.15-56.274Z" transform="matrix(.9559 0 0 1 32.603 -.678)" fill="#b16800"></path>
      </g>
    </g>
    <g transform="translate(-134.741 -121.492)scale(1.11481)">
      <path d="M1413.24 940.074c-26.79 22.762-8.74 73.266-8.74 73.266l-63.22-13.08c-13.19 10.76-21.49 31.46-17.11 54.99 0 0 72.07 17.82 99.34 8.9 47.21-15.45 53.67-97.393 53.67-97.393s-52.01-36.815-63.94-26.683Z" fill="#023341"></path>
      <clipPath id="k">
        <path d="M1413.24 940.074c-26.79 22.762-8.74 73.266-8.74 73.266l-63.22-13.08c-13.19 10.76-21.49 31.46-17.11 54.99 0 0 72.07 17.82 99.34 8.9 47.21-15.45 53.67-97.393 53.67-97.393s-52.01-36.815-63.94-26.683Z"></path>
      </clipPath>
      <g clip-path="url(#k)">
        <path d="M1417.23 949.891c-.24 12.694.42 26.76 8.47 37.21 10.94 14.209 36.22 22.569 32.71 44.499-.41 2.55-1.2 5.01-2.43 7.28-5.69 10.54-18.83 14.63-30 15.46-21.77 1.63-48.82-3.71-63.28-21.66-5.32-6.6-9.02-14.54-11.64-22.56-.76-2.33-1.43-4.73-1.87-7.15-.07-.38-.09-2.4-.46-2.59-.75-.389-2.29 2.52-2.51 2.9-2.03 3.53-3.58 7.35-4.93 11.19-5.01 14.32-6.85 29.83-.61 44.16 13.06 30.02 51.48 32.73 79.28 27.07 35.14-7.15 73.73-23.87 93.23-55.56 5.52-8.97 8.98-19 11.34-29.23 1.81-7.849 2.79-15.763 2.19-23.822-1.86-24.77-15.61-48.565-40.21-56.695-7.21-2.384-14.75-3.315-22.33-3.193-18.22.294-36.4 7.197-49.5 20.008-7.18 7.032 2.43 2.39 2.55 12.683Z" transform="translate(120.865 108.98)scale(.89702)" fill="#03222f"></path>
      </g>
    </g>
    <g transform="translate(27.917 .678)">
      <path d="M1452.18 840.756c-15.98-5.645-59.08-12.048-71.65 13.272-8.95 18.045 15.47 93.761 15.47 93.761 13.02 6.866 54.28 31.604 67.32-.076 15.84-38.476 27.08-39.58 27.74-47.006 0 0-10.96-4.826-14.66-12.812-7.42-16.033-8.25-41.495-24.22-47.139Z" fill="#f25c05"></path>
      <clipPath id="l">
        <path d="M1452.18 840.756c-15.98-5.645-59.08-12.048-71.65 13.272-8.95 18.045 15.47 93.761 15.47 93.761 13.02 6.866 54.28 31.604 67.32-.076 15.84-38.476 27.08-39.58 27.74-47.006 0 0-10.96-4.826-14.66-12.812-7.42-16.033-8.25-41.495-24.22-47.139Z"></path>
      </clipPath>
      <g clip-path="url(#l)">
        <path d="M1513.01 941.01c-5.37.617-11.37-1.323-16.29-3.233-12.76-4.955-22.33-13.22-29.51-24.86-4-6.475-7.79-13.899-14.14-18.414-1.36-.966-5.85-3.909-7.22-1.702-1.44 2.3-.4 6.759-.18 9.212.71 8.052 1.5 16.099 2.33 24.14a300.47 300.47 0 0 0 1.76 14.02c.52 3.428 1.1 6.847 1.79 10.244 3.42 16.768 10.41 40.363 31.3 40.449 2.61.011 5.17-.419 7.63-1.269 3.63-1.25 7.02-3.305 10.01-5.699 4.58-3.673 8.9-38.298 12.52-42.888Z" transform="translate(-27.917 -.678)" fill="#d23f00"></path>
      </g>
    </g>
    <g transform="rotate(5.855 1394.044 1216.414)">
      <path d="m1552.71 895.534-91.9 55.911s-49.12-81.077-72.42-96.143c-14.22-9.197-37.36 9.709-22.81 51.689 14.56 41.999 53.72 95.039 85.19 98.389 33.35 3.54 115.6-92.307 115.6-92.307s11.77-4.359 12.51-7.736c1.8-8.242-6.76-12.244-6.76-12.244s13.52-16.231 11.33-18.603c-5.83-6.316-30.74 21.044-30.74 21.044Z" fill="#fad8ba"></path>
      <clipPath id="m">
        <path d="m1552.71 895.534-91.9 55.911s-49.12-81.077-72.42-96.143c-14.22-9.197-37.36 9.709-22.81 51.689 14.56 41.999 53.72 95.039 85.19 98.389 33.35 3.54 115.6-92.307 115.6-92.307s11.77-4.359 12.51-7.736c1.8-8.242-6.76-12.244-6.76-12.244s13.52-16.231 11.33-18.603c-5.83-6.316-30.74 21.044-30.74 21.044Z"></path>
      </clipPath>
      <g clip-path="url(#m)">
        <path d="M1612.01 914.267c-.2 7.21-7.37 12.887-14.21 12.515-1.98-.108-3.92-.611-5.66-1.561-.31-.172-2.6-1.738-2.79-1.348-.41.817.41 2.448.59 3.258.48 2.15.64 4.199-.67 6.087-2.23 3.198-5.81 5.295-8.93 7.503-5.82 4.127-11.79 8.034-17.61 12.17-17.25 12.263-34.49 25.543-54.21 33.625-10.96 4.495-23.28 7.176-34.75 2.918-28.08-10.422-37.74-39.114-44.19-65.805-8.2-5.031-25.32-9.38-33.21-2.265-5.06 4.558-6 12.274-5.88 18.696.37 19.342 10.43 39.047 23.91 52.515 8.24 8.235 18.35 14.095 29.13 18.375 44.92 17.86 97.54 2.31 134.79-25.926 20.4-15.464 32.98-43.81 33.69-70.757ZM1613.02 893.099c2.3 3.099-.67 7.058-2.56 9.47-.47.6-.96 1.18-1.46 1.754-.59.678-1.19 1.351-1.81 2.007-.8.862-1.63 1.703-2.5 2.508-1.21 1.132-2.51 2.21-3.94 3.058-.46.273-.93.53-1.41.759-.05.021-.78.365-.69.439.29.213 1.27-.048 1.59-.08 1.45-.147 2.96.041 4.42-.075 1.64-.131 3.26-.568 4.76-1.329 1.58-.8 2.85-2.207 3.97-3.54 2.25-2.693 4.15-5.766 5.35-9.077 1.1-3.037-1.02-6.58-5.72-5.894Z" transform="rotate(-5.855 1394.044 1216.409)" fill="#d7b699"></path>
        <path d="M1367 932.4c7.44-6.586 20.41-7.211 29.38-4.6 6.25 1.818 13.07 5.393 19.76 4.673 8.74-.941 9.24-10.834 15.81-14.663 2.43-1.412 5.26-1.048 7.89-1.744 4.77-1.268 6.67-5.217 7.58-9.707 4.83-23.996-19.72-48.637-43.46-57.973-11.4-4.481-24.67-7.027-33.83 3.116-5.46 6.052-7.49 14.564-8.53 22.429-1.92 14.506 3.53 44.046 5.4 58.469Z" transform="rotate(-5.855 1386.718 943.128)" fill="#f25c05"></path>
      </g>
    </g>
    <path d="M1609.1 763.266c-.77-5.463-2.97-7.758-2.97-7.758s20.01-2.26 24.99 8.221c5.59 11.756-3.72 15.763-12.02 15.763-6.82 0-9.01-2.724-9.58-8.308-.31.394-.66.782-1.04 1.158-2.97 2.958-6.7 4.035-8.33 2.401-1.62-1.633-.53-5.361 2.44-8.32 2.13-2.118 4.65-3.271 6.51-3.157Z" fill="#fad8ba"></path>
    <clipPath id="n">
      <path d="M1609.1 763.266c-.77-5.463-2.97-7.758-2.97-7.758s20.01-2.26 24.99 8.221c5.59 11.756-3.72 15.763-12.02 15.763-6.82 0-9.01-2.724-9.58-8.308-.31.394-.66.782-1.04 1.158-2.97 2.958-6.7 4.035-8.33 2.401-1.62-1.633-.53-5.361 2.44-8.32 2.13-2.118 4.65-3.271 6.51-3.157Z"></path>
    </clipPath>
    <g clip-path="url(#n)">
      <path d="M1633.25 766.419c-.08.961-.45 1.904-.85 2.77-2.22 4.849-7.27 6.611-12.27 6.926-2.35.149-5 0-6.97-1.443-1.51-1.103-2.39-2.731-2.86-4.507-.16-.58-.27-1.177-.34-1.773-.01-.062-.06-.895-.1-.892-.18.015-.37.673-.43.801-.35.801-.75 1.589-1.26 2.306-1.39 1.959-3.84 3.367-6.23 3.584-.96.087-2 .078-2.73-.634.24 6.216 6.6 9.392 11.89 10.535 9.19 1.982 21.6.403 24.91-9.927.48-1.487-2.7-6.189-2.76-7.746Z" fill="#d7b699"></path>
    </g>
    <g transform="matrix(.93082 -.36549 .42137 1.07314 -253.248 463.251)">
      <path d="m1443.12 824.807-20.79-.783c-1.39 4.568-3.7 8.654-8.19 13.896 17.62 24.526 25.48 28.684 27.69-.067-3.47-5.571-1.05-7.562 1.29-13.046Z" fill="#fad8ba"></path>
      <clipPath id="o">
        <path d="m1443.12 824.807-20.79-.783c-1.39 4.568-3.7 8.654-8.19 13.896 17.62 24.526 25.48 28.684 27.69-.067-3.47-5.571-1.05-7.562 1.29-13.046Z"></path>
      </clipPath>
      <g clip-path="url(#o)">
        <path d="M1414.01 837.671c2.67 3.31 7.34 5.218 11.14 6.787 2.88 1.186 5.63 1.969 8.76 1.964 2.68-.005 5.47-.424 7.73-1.96 4.73-3.221 5.1-9.828 1.73-14.213-4.95-6.447-14.99-7.276-22.26-5.289-5.06 1.383-6.02 7.388-7.1 12.711Z" transform="matrix(.79054 .53119 -.5752 .64404 783.433 -464.58)" fill="#d7b699"></path>
      </g>
    </g>
    <g transform="matrix(1 0 0 1.24068 -5.019 -196.025)">
      <path d="M1433.51 799.279c9.59 0 17.38 8.097 17.38 18.07s-.42 18.07-10.01 18.07c-9.6 0-24.75-8.097-24.75-18.07s7.79-18.07 17.38-18.07Z" fill="#fad8ba"></path>
      <clipPath id="p">
        <path d="M1433.51 799.279c9.59 0 17.38 8.097 17.38 18.07s-.42 18.07-10.01 18.07c-9.6 0-24.75-8.097-24.75-18.07s7.79-18.07 17.38-18.07Z"></path>
      </clipPath>
      <g clip-path="url(#p)">
        <path d="M1452.22 808.951c-1.38 2.257-4.25 5.019-6.86 5.576-3.49.744-7.13-.25-10.34 1.743-2.13 1.315-3.23 3.382-3.85 5.724-.25.935-.44 1.885-.71 2.816-.05.18-.25.874-.56.63-.49-.385-.56-1.43-.62-1.978-.21-1.74-.21-3.526-.09-5.271.43-6.188 3.47-12.103 10.07-13.202 1.37-.227 11.59 3.8 12.96 3.962Z" transform="matrix(1 0 0 .80601 5.019 157.998)" fill="#d7b699"></path>
      </g>
    </g>
    <path d="M1434.08 812.559c1.79-1.407 4.88-.092 7.23-.536 4.77-.9 9.75-2.392 12.84-6.435 2.6-3.399 3.71-8.007 4.03-12.199.25-3.177-.17-6.56-1.65-9.415-2.46-4.746-8.93-7.437-13.41-3.611-2.59 2.217-3.76 5.796-4.66 8.969-.5-.553-1.81-.71-2.49-.855-2.78-.595-5.69-.569-8.49-.238-2.47.292-4.86.775-7.12 1.837-8.06 3.784-11.75 12.167-10.74 20.748-.79-.156-1.55 1.21-1.87 1.736-1.4 2.315-1.95 4.847-1.86 7.548.17 4.993 4.14 9.123 8.81 10.418 3.23.894 6.89.393 8.48-2.836.55-1.121.73-2.366.86-3.596-2.56-1.224-3.28-5.216-2.68-7.68.35-1.396 1.23-3.154 2.92-3.056 1.64.096 2.64 1.618 3.15 3.014 1.24 3.394-.36 6.918.69 10.226.42 1.295 1.8 2.289 2.55.65.48-1.064.32-2.354.21-3.479-.11-1.1-.29-2.197-.35-3.302-.13-2.173 1.75-6.5 3.55-7.908Z" fill="#03222f"></path>
  </g>
</svg>
