<svg xmlns="http://www.w3.org/2000/svg" width="1600.003" height="1600.003" fill-rule="evenodd" clip-rule="evenodd" image-rendering="optimizeQuality" shape-rendering="geometricPrecision" text-rendering="geometricPrecision" viewBox="0 0 16666.66 16666.66" id="finance-insurance">
  <rect width="16666.66" height="16666.66" fill="none"></rect>
  <path fill="#3fc0c6" fill-rule="nonzero" d="M4824.14 13489.52c-200.94,-1734.5 223.05,-3231.55 223.05,-3231.55l-139.48 0c-450.19,1446.73 -349.17,2945.86 -324.43,3231.55l240.86 0z"></path>
  <path fill="#3fc0c6" fill-rule="nonzero" d="m4645.32 12402.73 0-260.41c0 0-902.2-444.92-1304.16-1076.44l-131.2 36.89c0 0 401.87 631.52 1435.35 1299.96zM4618.62 12787.96l0-261.98c0 0 1091.46-610.68 1578.84-1205.87l75.87 105.46c0 0-503.17 689.75-1654.7 1362.39z"></path>
  <path fill="#3fc0c6" fill-rule="nonzero" d="M3952.23 11172.51c0 0-82 282.96-24.63 582.33l159.91 143.48c0 0-123-438.78-32.83-693.06l-102.46-32.74zM6242.73 11862.87c-149.22 32.06-348.2-11.18-492.84-54.83l-1.35 1.38c-13.53 40.58-33.79 78.6-61.76 110.24 287.74 93.24 575.26 49.09 575.26 49.09l-19.3-105.88zM5950.55 12460.41c0 0-206.1-210.46-495.08-307.59l-203.67 68.77c0 0 442.68 108.39 619.85 311.98l78.91-73.16zM4024.59 11869.8c-202.09 208.83-290.83 467.5-290.83 467.5l102.76 31.94c44.42-160.13 195-330.95 304.28-438.76-46.66-11.02-85.04-32.55-116.2-60.69zM3252.43 11975.57c0 0 449.11-11.32 726.5-137.74l-90.28-126.12c0 0-360.1 184.18-628.52 156.52l-7.7 107.34zM5489.18 11455.36c0 0-190.23 407.04-200.74 711.61l153.12-24.54c0 0-4.2-404.52 140.25-632.32l-92.63-54.75z"></path>
  <path fill="#ffce72" fill-rule="nonzero" d="M4735.79 9986.71c0,0 30.78,39.81 40.42,80.84 2.43,10.24 0.69,40.42 -2.51,80.84l408.17 92.24c11.4,-38.6 22.5,-66.51 33.13,-71.51 39.45,-18.58 504.22,-184.68 486.99,-596.85 -17.34,-412.09 -264.35,-544.83 -383.07,-587.98 -118.64,-43.18 -575.54,-50.44 -743.34,347.4 -137.05,324.73 119.8,574.15 160.22,655.02z"></path>
  <path fill="#268ccb" fill-rule="nonzero" d="M4883.17 10198.47c0 0 71.29-314.8 58.34-364.99-12.95-50.14-83.38-231.39-93.9-268.61-10.52-37.3 35.17-67.42 52.32-11.98 14.69 47.35 85.31 214.27 94.94 278.16 9.75 63.91-45.28 398.95-45.28 398.95l-66.43-31.53zM5057.6 10237.87c0 0 71.09-314.85 104.42-354.5 33.21-39.76 174.74-173.08 200.24-202.2 25.51-28.99-2.73-75.95-41.99-33.3-33.68 36.53-169.16 156.79-205.49 210.27-36.25 53.56-130.62 379.67-130.62 379.67l73.44.06z"></path>
  <path fill="#268ccb" fill-rule="nonzero" d="M5040.07 9554.66c11.1,-3.01 20.15,-7.24 26.31,-12.98 18.3,-17.42 16.93,-42.35 4.94,-56.6 -10.41,-12.34 -25.51,-12.45 -41.47,-0.28 -15.87,12.09 -7.62,40.31 4.28,60.6l5.94 9.25zm138.1 -19.6l-12.95 8.67c-15.3,13.56 -13.25,23.66 -9.74,31.09 4.2,8.67 12.48,17.23 23.5,25.04 17.14,-11.24 27.17,-26.03 27.74,-41.58 0.39,-10.93 -4.47,-20.59 -11.98,-23.99l-16.57 0.78zm168.91 131.42c-47.16,10.22 -120.21,-3.7 -170.15,-32.06l-1.77 0.67c-51.63,22.83 -110.24,-3.59 -148.15,-46.91 -61.35,9.25 -139.37,-5.57 -151.24,-8.01l6.63 -30.09c34.07,6.9 83.93,12.45 124.27,9.63 -23.58,-41 -22,-79.1 4.58,-99.33 33.41,-25.73 66.23,-16.1 83.65,4.67 21.04,25.04 23.77,68.58 -7.78,98.48 -7.02,6.63 -15.88,11.59 -25.9,15.79 24.63,23.17 56.37,37.96 85.7,33.57l-18.61 -24.46c-6.63,-13.53 -13.14,-40.39 17.34,-67.17 20.46,-18.03 43.15,-23.41 62.15,-14.63 18.3,8.5 29.59,28.74 28.74,51.71 -0.8,21.43 -11.59,41.52 -30.01,57.4 41.39,19.35 97.68,30.4 135.86,22.09l4.7 28.66z"></path>
  <path fill="#344c9d" fill-rule="nonzero" d="M4986.12 10148.86c-114.05,-25.81 -204.83,-77.69 -219.24,-90.67l2.24 7.68c8.28,34.9 -31.67,300.3 -13.44,410.38 3.2,19.46 8.28,34.09 15.68,41.66 20.15,20.54 65.65,47.93 118.33,57.29 51.63,14.3 104.5,9.14 131.5,-0.8 10.02,-3.7 20.85,-14.69 32.03,-30.84 63.8,-91.58 142.02,-348.31 164.41,-376.28l5.36 -5.94c-18.61,5.47 -122.92,13.22 -236.86,-12.48z"></path>
  <path fill="#2c2a43" fill-rule="nonzero" d="M4959.42 10266.83c66.23 13.8 139.87 22.17 209.88 16.37 11.32-30.01 21.43-57.09 29.9-77.66-150.17 21.28-303.48-13.42-429.9-97.16-1.27 22.17-3.7 51.02-6.43 82.96 60.69 35.34 130.81 59.5 196.55 75.48zM4929.33 10400.07c59.11 12.26 124.19 20.04 187.3 17.61 10.52-25.04 20.74-51.02 30.59-76.48-135.89 14.35-272.83-16.62-389.31-88.02-2.15 27.28-4 55.03-5.25 82.19 55.88 29.29 117.94 50.33 176.67 64.69zM4750.9 10400.57c0 28.99 1.35 55.13 4.78 75.68l1.93 9.3c46.19 20.59 94.97 36.36 141.63 47.65 46.93 9.85 97.79 16.54 148.23 17.92l5.74-7.57c11.98-17.17 24.46-40.14 36.91-66.26-117.94 7.2-235.89-19.46-339.23-76.72z"></path>
  <path fill="#ffce72" fill-rule="nonzero" d="M3541.41 10899.04c0,219.32 -177.74,397.1 -397.1,397.1 -219.24,0 -397.07,-177.78 -397.07,-397.1 0,-219.24 177.83,-397.02 397.07,-397.02 219.35,0 397.1,177.78 397.1,397.02z"></path>
  <path fill="#faaa41" fill-rule="nonzero" d="M3468.47 10899.04c0,179.02 -145.14,324.13 -324.16,324.13 -178.91,0 -324.04,-145.11 -324.04,-324.13 0,-178.93 145.14,-324.07 324.04,-324.07 179.02,0 324.16,145.14 324.16,324.07z"></path>
  <path fill="#ffce72" fill-rule="nonzero" d="M3105.74 10732.29c65.07-20.15 133.24-15.88 158.47 47.13l-105 42.08c-10.13-23.63-36.53-18.97-51.91-12.84-9.63 3.86-40.8 16.34-33.13 35.64 17.26 43.15 192.85-79.18 241.74 42.85 29.32 73.22-17.15 123.49-85.42 156.7l35.67 75.98-64.19 25.7-27.39-79.96c-67.97 19.27-141.02 12.98-167.31-52.9l105-41.96.85 2.24c12.18 28.74 46.77 21.43 63.22 14.88 15.98-6.43 46.74-20.04 38.27-40.97-17.92-44.92-195.09 73.44-242.41-44.61-27.28-68.09 15.1-115.41 78.1-147.16l-35.37-76.75 64.19-25.73 26.59 79.68zM4423.84 11240.12c-96.24 197.04-333.98 278.74-531.03 182.63-197.02-96.35-278.85-334.09-182.61-531.14 96.22-197.05 333.96-278.82 531-182.61 197.13 96.22 278.85 333.96 182.63 531.11z"></path>
  <path fill="#faaa41" fill-rule="nonzero" d="M4358.3 11208.04c-78.6,160.85 -272.64,227.56 -433.43,149.04 -160.91,-78.49 -227.61,-272.61 -149.04,-433.41 78.52,-160.79 272.53,-227.52 433.43,-149 160.79,78.49 227.52,272.5 149.03,433.37z"></path>
  <path fill="#ffce72" fill-rule="nonzero" d="M4105.54 10899.04c67.31 10.44 126.72 44.2 121.76 111.9l-112.89-8.31c1.35-25.59-24.43-32.96-41-34.26-10.33-.78-43.85-3.2-45.39 17.53-3.43 46.27 208.03 13.42 198.4 144.53-5.74 78.71-69.55 103.45-145.53 103.34l-1.24 83.85-68.96-5.06 10.52-83.85c-69.63-12.45-132.47-50.17-127.2-120.87l112.78 8.28-.19 2.43c-1.66 31.17 32.63 39.84 50.36 41.11 17.04 1.24 50.63 2.54 52.29-20.07 3.62-48.2-207.56-19.57-198.31-146.38 5.47-73.13 64.3-97.1 134.81-97.98l1.93-84.45 68.88 4.97-11.02 83.3zM5961.46 11256.19c-46.27 214.38-257.54 350.74-471.89 304.47-214.38-46.27-350.74-257.54-304.47-471.89 46.28-214.38 257.51-350.63 471.89-304.47 214.38 46.27 350.63 257.53 304.47 471.89z"></path>
  <path fill="#faaa41" fill-rule="nonzero" d="M5890.06 11240.81c-37.69,175.02 -210.18,286.25 -385.11,248.45 -175.01,-37.71 -286.25,-210.18 -248.45,-385.11 37.69,-174.93 210.18,-286.25 385.11,-248.48 174.9,37.83 286.25,210.21 248.45,385.14z"></path>
  <path fill="#ffce72" fill-rule="nonzero" d="M5570.68 11001.31c67.89-5.96 133.63 12.65 145.03 79.48l-111.51 19c-4.86-25.24-31.75-26.23-48.01-23.5-10.32 1.77-43.46 7.4-39.95 27.86 7.81 45.78 205.22-36.72 227.25 92.9 13.22 77.72-42.77 117.01-116.59 135.12l18.88 81.78-68.17 11.62-9.83-83.98c-70.63 4.61-140.67-17.04-152.54-86.97l111.51-18.91.39 2.37c5.85 30.65 41.3 30.84 58.75 27.83 16.93-2.81 49.86-9.61 46.05-31.94-8.06-47.59-206.3 30.7-227.61-94.67-12.29-72.36 39.07-109.63 107.43-127.36l-18.42-82.52 68.2-11.57 9.14 83.46zM6524.21 11567.67c-218.74 16.15-409.16-147.98-425.34-366.7-16.15-218.69 148.06-409.08 366.72-425.23 218.75-16.29 409.17 147.93 425.31 366.67 16.18 218.67-148.04 409.08-366.7 425.26z"></path>
  <path fill="#faaa41" fill-rule="nonzero" d="M6518.85 11494.93c-178.52,13.11 -333.96,-120.79 -347.13,-299.31 -13.25,-178.55 120.79,-333.9 299.31,-347.13 178.44,-13.25 333.87,120.73 347.04,299.31 13.22,178.49 -120.79,333.87 -299.22,347.13z"></path>
  <path fill="#ffce72" fill-rule="nonzero" d="M6658.44 11120.88c24.82 63.42 25.59 131.8-35.37 161.59l-49.67-101.66c22.78-11.79 16.15-37.91 8.94-52.7-4.56-9.36-19.38-39.56-37.96-30.4-41.8 20.37 93.09 186.5-24.96 244.17-70.9 34.68-124.38-7.87-162.53-73.61l-73.17 41.17-30.37-62.12 77.72-33.21c-24.27-66.31-23.39-139.67 40.42-170.73l49.67 101.6-2.24 1.05c-27.78 14.25-17.92 48.2-10.13 64.19 7.48 15.38 23.39 45.09 43.73 35.15 43.35-21.23-87.77-189.23 26.48-245.06 65.96-32.22 116.2 6.57 152.54 67.01l74.02-40.89 30.29 62.04-77.41 32.41zM4113.33 12617.89c-37.6 216.07-243.09 360.79-459.22 323.27-216.04-37.52-360.76-243.13-323.27-459.13 37.49-216.01 243.01-360.88 459.13-323.35 216.04 37.52 360.85 243.12 323.35 459.22z"></path>
  <path fill="#faaa41" fill-rule="nonzero" d="M4041.35 12605.32c-30.59,176.39 -198.4,294.56 -374.68,263.97 -176.39,-30.7 -294.53,-198.4 -263.94,-374.79 30.67,-176.39 198.39,-294.5 374.76,-263.85 176.31,30.59 294.45,198.42 263.86,374.68z"></path>
  <path fill="#ffce72" fill-rule="nonzero" d="M3712.53 12378.99c67.5-8.78 134.04 7.21 148.15 73.55l-110.74 23.47c-5.85-24.96-32.72-24.96-48.9-21.45-10.13 2.18-43.04 9.06-38.76 29.4 9.64 45.53 203.56-44.94 230.84 83.6 16.37 77.11-37.99 118.74-111.04 139.78l22.22 80.92-67.61 14.3-13.33-83.35c-70.24 7.29-141.13-11.43-155.82-80.76l110.63-23.47.5 2.43c7.09 30.37 42.46 29.13 59.8 25.43 16.76-3.5 49.37-11.68 44.7-33.79-10.02-47.35-204.83 38.93-231.22-85.45-15.19-71.76 34.57-111.13 102.18-131.67l-21.73-81.61 67.59-14.3 12.56 82.96zM6288.62 12761.09c-37.52 216.01-243.01 360.76-459.13 323.24-216.04-37.49-360.76-243.09-323.27-459.11 37.5-216.07 243.02-360.87 459.13-323.38 216.04 37.57 360.85 243.09 323.27 459.24z"></path>
  <path fill="#faaa41" fill-rule="nonzero" d="M6216.73 12748.5c-30.59,176.42 -198.4,294.56 -374.79,263.96 -176.28,-30.67 -294.42,-198.42 -263.86,-374.79 30.59,-176.28 198.43,-294.45 374.79,-263.86 176.31,30.59 294.45,198.4 263.86,374.68z"></path>
  <path fill="#ffce72" fill-rule="nonzero" d="M5887.91 12522.17c67.5,-8.75 134.04,7.18 148.15,73.61l-110.74 23.41c-5.85,-24.96 -32.72,-24.85 -48.89,-21.42 -10.22,2.13 -43.04,9.06 -38.76,29.4 9.63,45.47 203.56,-45 230.84,83.54 16.34,77.17 -37.99,118.75 -111.04,139.78l22.2 80.92 -67.59 14.44 -13.33 -83.49c-70.24,7.43 -141.14,-11.38 -155.85,-80.73l110.65 -23.47 0.5 2.43c7.09,30.4 42.46,29.1 59.8,25.43 16.73,-3.51 49.37,-11.71 44.7,-33.8 -10.02,-47.35 -204.83,39.04 -231.22,-85.42 -15.19,-71.78 34.56,-111.13 102.07,-131.72l-21.62 -81.58 67.59 -14.33 12.56 82.99z"></path>
  <path fill="#3fc0c6" fill-rule="nonzero" d="M3669.87 11869.8c0 0-197.43-199.11-384.04-205.22-186.61-6.13-475.67 233.74-475.67 233.74 0 0 253.81 321.92 475.67 280.89 255.57-47.13 384.04-309.41 384.04-309.41zM6998.25 11869.8c0 0-197.43-199.11-384.04-205.22-186.61-6.13-475.7 233.74-475.7 233.74 0 0 253.83 321.92 475.7 280.89 255.57-47.13 384.04-309.41 384.04-309.41z"></path>
  <path fill="#e7a192" fill-rule="nonzero" d="M9490.55 8341.95c-20.35,17.34 -61.65,-29.13 -79.46,-37.99 -36.06,-17.83 -62.84,8.31 -96.94,19.11 -13.14,4.09 -42.85,18.5 -50.06,4.09 -4.86,-9.75 6.35,-24.85 -0.66,-32.25 -9.28,-9.85 -34.79,8.31 -44.61,11.37 -24.46,7.93 -59.33,11.63 -46.77,-25.29 15.1,-44.65 73.85,-77.06 113.2,-93.59 40.03,-16.68 98.76,-29.41 135.75,-8.97 48.23,26.7 83.19,87.46 77.64,142.98 -1.08,10.52 -4,17.04 -8.09,20.54z"></path>
  <path fill="#fbcdc2" fill-rule="nonzero" d="M9660.9 8237.42c7.7,-27.36 -15.87,-78.19 -27.75,-105.16 -20.35,-46.39 -48.78,-78.02 -79.76,-116.98 -11.9,0 -61.07,55.61 -81.14,67.67 -29.98,18.06 -79.49,15.98 -101.88,19.3 -11.79,1.77 -23.85,1.38 -35.83,1.07 -16.26,-0.47 -32.44,-0.96 -47.74,3.78 -48.7,15.13 -94.76,28.35 -143.46,42.57 -61.76,18.11 -97.9,54.64 -143.37,74.63 -31.56,13.8 -116.59,95.83 -78.6,137.71 32.25,35.53 107.54,-54.75 127.2,-72.47 28.74,-25.79 133.05,-65.24 133.05,-65.24 0,0 -55.8,13.25 -78.41,24.35 -17.42,8.67 -29.98,30.67 -38.65,48.76 -14.13,29.74 1.74,37.22 26.59,38.1 32.14,1.3 53.29,-16.76 76.56,-36.31 37.19,-31.25 81.72,-51.43 128.66,-62.15 24.35,-5.47 43.15,-10.71 68.28,-2.96 21.04,6.54 47.82,12.18 64.85,27.03 37.91,33.1 -36.8,71.48 -47.13,102.54 -5.85,17.42 -7.01,46.66 5.44,61.84 14.33,17.37 42.49,1.46 56.02,-10.41 15.38,-13.64 25.04,-32.55 37.8,-48.04 15.68,-18.97 31.06,-38.46 46.85,-57.26 18,-21.54 31.56,-37.19 58.92,-47.82 24.24,-9.47 55.22,-8.48 76.45,-24.27l-2.93 -0.3z"></path>
  <path fill="#e5e6e5" fill-rule="nonzero" d="M8624.99 8698.82c0,0 585.06,-665.31 925.47,-333.85 340.31,331.42 -24.85,785.28 -283.73,1054.77l-140.45 -124.07c0,0 596.38,-460.57 318.41,-772.94 -252.37,-283.73 -690.28,311.95 -690.28,311.95l-129.43 -135.86z"></path>
  <path fill="#bec1c1" fill-rule="nonzero" d="M8750.25 8574.36c-84.07 75.37-125.26 124.46-125.26 124.46l129.43 135.86c0 0 46.46-62.31 117.56-137.05l-121.73-123.27zM9304.06 9127.97c-91.58 100.22-177.78 167.7-177.78 167.7l140.45 124.07c49.39-51.41 101.98-109.96 152.84-172.94l-115.51-118.83z"></path>
  <polygon fill="#e5e6e5" fill-rule="nonzero" points="7995.7 9825.7 5901.35 10142.45 5939.23 10501.73 8562.95 10241.68"></polygon>
  <path fill="#e5e6e5" fill-rule="nonzero" d="M5999.45 10127.63l-98.09 14.83 37.88 359.27 124.87 -12.37c-11.68,-94.15 -62.23,-333.21 -64.66,-361.73z"></path>
  <path fill="#bec1c1" fill-rule="nonzero" d="M8234.02 10106.2l-18.5 -21.54c-469.07,64.61 -2290.01,286.58 -2290.01,286.58l13.72 130.48 2456.49 -243.37c-58.06,-44.51 -112.89,-93.79 -161.7,-152.15z"></path>
  <path fill="#e5e6e5" fill-rule="nonzero" d="M8126.9 8685.18c0,0 -347.13,-451.07 -651.29,-142.96 -321.42,325.59 94.56,676.03 94.56,676.03l108.81 -111.13c0,0 -297.46,-284.7 -87.46,-465.7 187.88,-161.84 425.31,162.28 425.31,162.28l110.08 -118.52z"></path>
  <path fill="#bec1c1" fill-rule="nonzero" d="M8016.82 8803.7l46.96 -46.27c-68.97,-79.49 -306.51,-357.07 -530.83,-146.11 -204.22,192.1 33.71,471.83 109.3,545.05l36.72 -49.25c0,0 -297.46,-284.81 -87.46,-465.7 187.88,-161.84 425.31,162.28 425.31,162.28z"></path>
  <polygon fill="#e5e6e5" fill-rule="nonzero" points="9856.87 9859.77 8768.64 10922.9 7265.31 9465.82 8395.12 8359.59"></polygon>
  <polygon fill="#bec1c1" fill-rule="nonzero" points="7315.97 9416.23 8819.3 10873.4 9045.64 10652.3 7534.03 9202.65"></polygon>
  <polygon fill="#bec1c1" fill-rule="nonzero" points="8607.54 8577.67 8527.31 8495.26 7408.49 9604.61 7491.1 9684.7"></polygon>
  <path fill="#e5e6e5" fill-rule="nonzero" d="M5956.99 10134.06l-226.17 -55.77c-28.82,-7.04 -55.52,17.67 -50.63,47.02l75.48 448.89c4.75,28.24 36.11,43.26 61.15,29.13l191.96 -108.48 -51.79 -360.79z"></path>
  <path fill="#bec1c1" fill-rule="nonzero" d="M5723.11 10380.3l32.55 193.89c4.75,28.24 36.11,43.26 61.15,29.13l191.96 -108.48 -21.81 -151.96 -263.85 37.41z"></path>
  <path fill="#fbcdc2" fill-rule="nonzero" d="M11686.01 4291.18c-5.66,10.24 -10.52,20.73 -16.57,30.89 -55.52,92.9 -114.24,188.13 -187.49,268.41 -44.59,48.7 -121.64,92.52 -158.25,141.11 -14.72,19.6 -30.59,37.91 -47.35,54.94 63.89,142.8 228.41,519.43 256.27,675.37 0,0 469.54,-153.04 595.68,-389.78 0,0 -331.25,-483.02 -442.29,-780.94z"></path>
  <path fill="#e7a192" fill-rule="nonzero" d="M11629.02 5154.4c-0.69,-144.42 42.57,-296.63 127.8,-414.68 29.41,-40.72 60.08,-78.24 93.4,-113.58 -65.54,-115.82 -127.22,-235.61 -164.22,-334.95 -5.66,10.24 -10.52,20.73 -16.57,30.89 -55.52,92.9 -114.24,188.13 -187.49,268.41 -44.59,48.7 -121.64,92.52 -158.25,141.11 -14.72,19.6 -30.59,37.91 -47.35,54.94 63.89,142.8 228.41,519.43 256.27,675.37 0,0 80.53,-26.42 183.49,-73.82 -53.09,-64.3 -86.58,-145.22 -87.08,-233.68z"></path>
  <path fill="#2c2a43" fill-rule="nonzero" d="M11739.95 12748.81c0 0 25.12 490.8-46.17 563.83-71.39 72.94-1043.42 178.93-1134.28 96.22-90.97-82.77-53.59-237.13 150.96-311.65 219.33-79.87 334.07-27.55 469.93-97.1 135.87-69.55 81.23-288.13 81.23-288.13l478.32 36.83zM14119.97 12711.98c0 0 139.87 463.83 75.87 543.28-64 79.49-1039.53 292.57-1137.98 219.08-98.48-73.66-76.09-230.87 120.26-324.74 210.6-100.69 329.81-59.72 458.36-142.02 128.57-82.28 53.09-294.5 53.09-294.5l430.39-1.1z"></path>
  <path fill="#3fc0c6" fill-rule="nonzero" d="M14022.18 10071.91c46.35,-1358.68 -92.05,-2296.03 -154.47,-2735.01 -162.64,3.12 -325.89,14.63 -489.5,85.5 -300.88,130.43 -603.2,255.22 -905.24,380.34 234.34,507.83 737.13,2160.78 795.08,2505.94 72.06,429.15 390.25,2582.91 390.25,2582.91l554.3 -23.11c-2.35,-351.87 -194.39,-2678.63 -190.42,-2796.58z"></path>
  <path fill="#33a5ad" fill-rule="nonzero" d="M12956.56 7609.01c-158.47,73.66 -322.19,131.22 -486.41,187.6 229.95,498.17 727.27,2138.28 795.55,2500.59 80.07,-227.72 393.87,-1038.18 545.83,-1641.84 101.49,-403.59 125.34,-822.91 67.86,-1235.08l-0.67 -4.89c-303.89,15.3 -598.22,42.85 -922.16,193.62z"></path>
  <path fill="#3fc0c6" fill-rule="nonzero" d="M13362.22 7542.01c-212.15,67.42 -597.54,162.48 -889.25,260.74 -210.96,506.21 -780.44,1965.5 -886.49,2500.2 -146.8,739.83 -392.04,2539.76 -392.04,2539.76l625.31 82.41c0,0 628.1,-2553.37 717.8,-2716.54 295.8,-538.04 619.54,-962.86 805.29,-1297.61 448.89,-809.3 477.06,-1204.93 537.82,-1490.13 -165.26,43.76 -340.78,64.8 -518.44,121.18z"></path>
  <path fill="#268ccb" fill-rule="nonzero" d="M12256.57 5294.87c-240.47,-115.13 -529.76,-21.84 -679.84,198.48 -246.33,361.45 -706.43,1032.04 -861.78,1226.35 -216.23,270.15 -1227.51,1312.3 -1227.51,1312.3l262.5 293.37c0,0 1327.81,-1024.31 1497.67,-1241.7 169.77,-217.31 1212.03,-1251.76 1188.83,-1560.62 -8.06,-108 -82.08,-181.44 -179.87,-228.18z"></path>
  <path fill="#2674b9" fill-rule="nonzero" d="M9749.94 8325.38l-87.57 -97.9 -155.74 -174.13 -19.19 -21.34c0,0 1011.28,-1042.15 1227.51,-1312.3 149.89,-187.38 583.21,-817.96 834.81,-1186.82 58.04,224.02 158.94,610.4 248.45,937.87 -242.13,273.77 -477.44,519.32 -550.6,612.92 -169.85,217.39 -1497.67,1241.7 -1497.67,1241.7z"></path>
  <path fill="#268ccb" fill-rule="nonzero" d="M12255.96 8173.67c0,0 505.79,-37.61 990.85,-209.41 359.08,-127.22 665.4,-337.57 712.75,-493.92 0,0 -606.4,-1477.02 -1012.94,-1976.18 -406.65,-499.28 -869.57,-498.78 -869.57,-498.78 0,0 -293.65,285.39 -575.43,350.91 0,0 281.86,1100.32 413.06,1534.99 131.2,434.67 341.27,1292.4 341.27,1292.4z"></path>
  <path fill="#5d94c2" fill-rule="nonzero" d="M12255.96 8173.67c0,0 -210.07,-857.72 -341.27,-1292.4l0 0c131.2,434.48 341.08,1291.7 341.27,1292.4l0 0zm-341.74 -1293.97c-10.32,-34.26 -21.65,-72.72 -33.63,-114.44 11.98,41.72 23.3,80.18 33.63,114.44zm-33.82 -115.1c-0.08,-0.19 -0.19,-0.5 -0.19,-0.78 0,0.28 0.11,0.58 0.19,0.78z"></path>
  <path fill="#2674b9" fill-rule="nonzero" d="M12255.96 8173.67c-0.19,-0.69 -210.07,-857.92 -341.27,-1292.4l0 0c-0.2,-0.5 -0.28,-0.99 -0.47,-1.57 -10.32,-34.26 -21.65,-72.72 -33.63,-114.44 -0.08,-0.17 -0.08,-0.36 -0.19,-0.66 -0.08,-0.19 -0.19,-0.5 -0.19,-0.78 -47.13,-163.64 -105.19,-377.02 -161.68,-588.48 22.8,-5.77 45.58,-11.81 66.73,-21.62 166.93,-77.94 295,-214.22 424.54,-341.68 21.73,-21.31 45.78,-40.61 69.16,-60.38 89.31,227.99 55.13,542.02 56.1,740.72 2.81,550.11 33.52,1161.83 267.36,1635.41 -203.56,35.06 -344.81,45.75 -346.46,45.89z"></path>
  <path fill="#fbcdc2" fill-rule="nonzero" d="M11632.91 3618.27c0,0 -405.27,-270.29 -636.88,-112.01 -231.61,158.26 -362.81,289.56 -339.61,401.46 23.08,111.93 121.26,400.13 115.9,531.41 -5.28,131.2 -64.5,334.45 -36.14,375.67 28.24,41.17 174.93,-25.73 192.96,-12.87 18,12.87 277.58,280.48 347.21,283.02 69.63,2.51 424.76,-452.89 414.44,-632.96 -10.24,-180.23 108.12,-602.23 -57.87,-833.73z"></path>
  <path fill="#2c2a43" fill-rule="nonzero" d="M11158.21 3939.86c-30.87,84.93 -150.58,234.15 -474.81,268.91 -324.24,34.79 -559.66,-613.69 0,-887.76 559.74,-274.07 648.48,-69.46 771.97,-84.93 123.5,-15.41 233.85,-4.5 341.96,77.91 186.8,142.57 323.96,362.31 203.94,732.63 -121.34,374.48 -312.64,435.86 -312.64,435.86 -49.56,-60.8 -109.96,-176.59 -71.09,-244.75 15.38,-27.19 42.66,-46.49 61.76,-98.4 34.57,-94.59 -86.89,-208.42 -202.7,-115.82 -54.53,43.65 -21.81,165.1 -34.76,223.83 -13.75,62.45 -42.65,67.5 -67.5,71.39 -48.31,7.79 -145.72,-95.94 -133.82,-270.76 7.7,-113.28 -51.44,-193.04 -82.3,-108.11z"></path>
  <path fill="#fbcdc2" fill-rule="nonzero" d="M9712.33 8272.43c-23.57,7.56 -52.79,13.42 -59.69,19.35 -32.36,27.97 -102.68,35.86 -133.16,36.83 -69.16,2.26 -177.06,0.28 -234.04,36.61 -33.13,21.15 -226.83,159.83 -137.82,225.95 11.98,8.86 45.89,16.48 52.21,10.55 18.61,-17.34 71.01,-65.38 71.01,-65.38 0,0 -40.14,36.83 -47.04,47.96 -5.85,9.3 -18.8,22.97 -20.76,33.79 -4.17,23.08 30.01,54.8 51.24,53.56 21.04,-1.19 27.66,-25.73 39.65,-40.72l-0.8 1.27c-9.91,17.92 -38.85,39.45 -0.08,76.48 43.23,41.27 45.39,2.98 64.66,-11.32l19.38 -18.61 -34.26 42.65c-12.67,26.23 56.3,67.42 93.98,45.89 23.08,-13.17 66.43,-72.28 81.72,-74.1 17.04,-2.07 35.45,-9.85 51.82,-14.91 50.75,-15.6 96.41,-49.97 132.83,-88.85 16.37,-17.42 49.7,-49.59 65.19,-68.44 38.76,-47.27 49.86,-66.18 59.39,-84.35 -59.19,-49.39 -92.41,-89.73 -115.41,-164.22z"></path>
  <path fill="#268ccb" fill-rule="nonzero" d="M9814.9 8574.36l-266.28 -339.75c0,0 914.76,-907.92 1254.49,-1353.33 339.61,-445.28 657.92,-1303 949.52,-1392.28 291.52,-89.34 613.11,36.03 494.39,473.44 -118.72,437.54 -921.58,1101.37 -1075.94,1307.25 -154.47,205.85 -1194,1183.7 -1356.17,1304.68z"></path>
  <path fill="#c0c3c4" fill-rule="nonzero" d="M7288.97 3891.66l-328.41 0 0 3727.33 328.41 0c149.72,0 271.17,-115.24 271.17,-257.54l0 -3212.37c0,-142.21 -121.45,-257.43 -271.17,-257.43z"></path>
  <path fill="#5184b0" fill-rule="nonzero" d="M7560.14 4827.76l-599.58 0 0 -936.1 328.41 0c149.72,0 271.17,115.21 271.17,257.43l0 678.68z"></path>
  <path fill="#e5e6e5" fill-rule="nonzero" d="M7030.88 7805.56l-4305.68 0c-149.69,0 -271.15,-121.31 -271.15,-271.15l0 -3382.79c0,-149.81 121.45,-271.17 271.15,-271.17l4305.68 0c149.81,0 271.15,121.37 271.15,271.17l0 3382.79c0,149.83 -121.34,271.15 -271.15,271.15z"></path>
  <path fill="#268ccb" fill-rule="nonzero" d="M7288.97 3880.45c0,0 -232.66,0 -258.09,0l-4305.68 0c-149.69,0 -271.15,121.37 -271.15,271.17l0 668.24 4847.97 0 0 -477.17c0,-11.57 0.78,-22.97 2.35,-34.09 19.38,-138.6 233.65,-138.79 253.34,-0.19 1.55,11.24 2.43,22.61 2.43,34.29l0 -193.62c0,-142.21 -121.45,-268.63 -271.17,-268.63z"></path>
  <polygon fill="#fefefe" fill-rule="nonzero" points="2454.06 4819.87 7302.03 4819.87 7302.03 4732.48 2454.06 4732.48"></polygon>
  <path fill="#2c2a43" fill-rule="nonzero" d="M4406.59 3891.66l-265.98 0c0,0 29.79,-373.22 -75.48,-458.64l0 -81.42c0,0 341.46,35.72 341.46,540.05z"></path>
  <path fill="#bec1c1" fill-rule="nonzero" d="M3474.51 3891.66l460.18 0c0,0 -51.52,-373.22 130.43,-458.64l110.63 -41.99c-58.03,-39.43 -110.63,-44.51 -165.18,-44.51 -146.38,0 -536.05,24.55 -536.05,545.14z"></path>
  <path fill="#2c2a43" fill-rule="nonzero" d="M6494.5 3891.66l-265.98 0c0,0 29.79,-373.22 -75.4,-458.64l0 -81.42c0,0 341.39,35.72 341.39,540.05z"></path>
  <path fill="#bec1c1" fill-rule="nonzero" d="M5562.51 3891.66l460.1 0c0,0 -51.52,-373.22 130.5,-458.64l110.55 -41.99c-57.95,-39.43 -110.55,-44.51 -165.19,-44.51 -146.38,0 -535.97,24.55 -535.97,545.14z"></path>
  <polygon fill="#fefefe" fill-rule="nonzero" points="2787.66 5439.6 3306.98 5439.6 3306.98 5045.9 2787.66 5045.9"></polygon>
  <polygon fill="#fefefe" fill-rule="nonzero" points="3519.87 5439.6 4039.28 5439.6 4039.28 5045.9 3519.87 5045.9"></polygon>
  <polygon fill="#fefefe" fill-rule="nonzero" points="4252.22 5439.6 4771.55 5439.6 4771.55 5045.9 4252.22 5045.9"></polygon>
  <polygon fill="#fefefe" fill-rule="nonzero" points="4984.55 5439.6 5503.87 5439.6 5503.87 5045.9 4984.55 5045.9"></polygon>
  <polygon fill="#fefefe" fill-rule="nonzero" points="5716.9 5439.6 6236.22 5439.6 6236.22 5045.9 5716.9 5045.9"></polygon>
  <polygon fill="#fefefe" fill-rule="nonzero" points="6449.22 5439.6 6968.55 5439.6 6968.55 5045.9 6449.22 5045.9"></polygon>
  <polygon fill="#fefefe" fill-rule="nonzero" points="2787.66 6111.96 3306.98 6111.96 3306.98 5718.17 2787.66 5718.17"></polygon>
  <polygon fill="#fefefe" fill-rule="nonzero" points="3519.87 6111.96 4039.28 6111.96 4039.28 5718.17 3519.87 5718.17"></polygon>
  <polygon fill="#fefefe" fill-rule="nonzero" points="4252.22 6111.96 4771.55 6111.96 4771.55 5718.17 4252.22 5718.17"></polygon>
  <polygon fill="#fefefe" fill-rule="nonzero" points="4984.55 6111.96 5503.87 6111.96 5503.87 5718.17 4984.55 5718.17"></polygon>
  <polygon fill="#fefefe" fill-rule="nonzero" points="5716.9 6111.96 6236.22 6111.96 6236.22 5718.17 5716.9 5718.17"></polygon>
  <polygon fill="#fefefe" fill-rule="nonzero" points="6449.22 6111.96 6968.55 6111.96 6968.55 5718.17 6449.22 5718.17"></polygon>
  <polygon fill="#fefefe" fill-rule="nonzero" points="2787.66 6784.18 3306.98 6784.18 3306.98 6390.47 2787.66 6390.47"></polygon>
  <polygon fill="#fefefe" fill-rule="nonzero" points="3519.87 6784.18 4039.28 6784.18 4039.28 6390.47 3519.87 6390.47"></polygon>
  <polygon fill="#fefefe" fill-rule="nonzero" points="4252.22 6784.18 4771.55 6784.18 4771.55 6390.47 4252.22 6390.47"></polygon>
  <polygon fill="#fefefe" fill-rule="nonzero" points="4984.55 6784.18 5503.87 6784.18 5503.87 6390.47 4984.55 6390.47"></polygon>
  <polygon fill="#fefefe" fill-rule="nonzero" points="5716.9 6784.18 6236.22 6784.18 6236.22 6390.47 5716.9 6390.47"></polygon>
  <polygon fill="#fefefe" fill-rule="nonzero" points="6449.22 6784.18 6968.55 6784.18 6968.55 6390.47 6449.22 6390.47"></polygon>
  <polygon fill="#fefefe" fill-rule="nonzero" points="2787.66 7456.42 3306.98 7456.42 3306.98 7062.72 2787.66 7062.72"></polygon>
  <polygon fill="#fefefe" fill-rule="nonzero" points="3519.87 7456.42 4039.28 7456.42 4039.28 7062.72 3519.87 7062.72"></polygon>
  <polygon fill="#fefefe" fill-rule="nonzero" points="4252.22 7456.42 4771.55 7456.42 4771.55 7062.72 4252.22 7062.72"></polygon>
  <polygon fill="#fefefe" fill-rule="nonzero" points="4984.55 7456.42 5503.87 7456.42 5503.87 7062.72 4984.55 7062.72"></polygon>
  <polygon fill="#ffce72" fill-rule="nonzero" points="3047.32 5080.79 3087.44 5204.59 3217.67 5204.59 3112.37 5281.01 3152.51 5404.84 3047.32 5328.28 2942.02 5404.84 2982.25 5281.01 2876.98 5204.59 3007.1 5204.59"></polygon>
  <polygon fill="#ffce72" fill-rule="nonzero" points="3047.32 5760.52 3087.44 5884.21 3217.67 5884.21 3112.37 5960.74 3152.51 6084.48 3047.32 6008.01 2942.02 6084.48 2982.25 5960.74 2876.98 5884.21 3007.1 5884.21"></polygon>
  <polygon fill="#ffce72" fill-rule="nonzero" points="3779.56 5080.79 3819.76 5204.59 3949.91 5204.59 3844.61 5281.01 3884.83 5404.84 3779.56 5328.28 3674.37 5404.84 3714.49 5281.01 3609.3 5204.59 3739.42 5204.59"></polygon>
  <polygon fill="#ffce72" fill-rule="nonzero" points="4511.88 5080.79 4552.11 5204.59 4682.23 5204.59 4576.93 5281.01 4617.16 5404.84 4511.88 5328.28 4406.59 5404.84 4446.81 5281.01 4341.54 5204.59 4471.66 5204.59"></polygon>
  <polygon fill="#ffce72" fill-rule="nonzero" points="4511.88 5753.01 4552.11 5876.84 4682.23 5876.84 4576.93 5953.26 4617.16 6077.06 4511.88 6000.53 4406.59 6077.06 4446.81 5953.26 4341.54 5876.84 4471.66 5876.84"></polygon>
  <polygon fill="#ffce72" fill-rule="nonzero" points="5244.21 5080.79 5284.44 5204.59 5414.55 5204.59 5309.28 5281.01 5349.51 5404.84 5244.21 5328.28 5138.94 5404.84 5179.16 5281.01 5073.86 5204.59 5203.98 5204.59"></polygon>
  <polygon fill="#ffce72" fill-rule="nonzero" points="5244.21 5753.01 5284.44 5876.84 5414.55 5876.84 5309.28 5953.26 5349.51 6077.06 5244.21 6000.53 5138.94 6077.06 5179.16 5953.26 5073.86 5876.84 5203.98 5876.84"></polygon>
  <polygon fill="#ffce72" fill-rule="nonzero" points="5976.56 5080.79 6016.79 5204.59 6146.91 5204.59 6041.6 5281.01 6081.83 5404.84 5976.56 5328.28 5871.26 5404.84 5911.49 5281.01 5806.22 5204.59 5936.33 5204.59"></polygon>
  <polygon fill="#ffce72" fill-rule="nonzero" points="3779.56 6433.62 3819.76 6557.42 3949.91 6557.42 3844.61 6633.9 3884.83 6757.59 3779.56 6681.11 3674.37 6757.59 3714.49 6633.9 3609.3 6557.42 3739.42 6557.42"></polygon>
  <polygon fill="#ffce72" fill-rule="nonzero" points="3779.56 7097.59 3819.76 7221.31 3949.91 7221.31 3844.61 7297.75 3884.83 7421.52 3779.56 7345.1 3674.37 7421.52 3714.49 7297.75 3609.3 7221.31 3739.42 7221.31"></polygon>
  <polygon fill="#ffce72" fill-rule="nonzero" points="5244.21 6425.26 5284.44 6549.06 5414.55 6549.06 5309.28 6625.51 5349.51 6749.31 5244.21 6672.86 5138.94 6749.31 5179.16 6625.51 5073.86 6549.06 5203.98 6549.06"></polygon>
  <polygon fill="#ffce72" fill-rule="nonzero" points="5976.56 6425.26 6016.79 6549.06 6146.91 6549.06 6041.6 6625.51 6081.83 6749.31 5976.56 6672.86 5871.26 6749.31 5911.49 6625.51 5806.22 6549.06 5936.33 6549.06"></polygon>
  <path fill="#f1666e" fill-rule="nonzero" d="M8061.74 5404.84c0,442.57 -358.83,801.26 -801.4,801.26 -442.57,0 -801.37,-358.69 -801.37,-801.26 0,-442.68 358.81,-801.43 801.37,-801.43 442.57,0 801.4,358.75 801.4,801.43z"></path>
  <path fill="#fefefe" fill-rule="nonzero" d="M7841.31 5404.84c0,320.81 -260.13,580.94 -580.97,580.94 -320.93,0 -580.97,-260.13 -580.97,-580.94 0,-320.93 260.05,-581.08 580.97,-581.08 320.84,0 580.97,260.16 580.97,581.08z"></path>
  <path fill="#b0ddd3" fill-rule="nonzero" d="M7212.91 5400.64c-13.45,-0.39 -128.66,-331.44 -167.53,-318.49 -54.72,18.3 -204.42,90.47 -208.03,152.93 -3.59,62.42 301.74,599.19 352.87,599.19 107.43,0 558.58,-595.58 522.05,-663.08 -36.42,-67.53 -206.68,-160.52 -232.19,-135.03 -18.89,18.91 -255.57,364.8 -267.17,364.49z"></path>
</svg>
