<svg xmlns="http://www.w3.org/2000/svg" viewBox="0 0 128 128" id="income">
  <path d="M18 38a2 2 0 0 0 0 4h4a2 2 0 0 0 0-4zm92 4a2 2 0 0 0 0-4h-4a2 2 0 0 0 0 4zM18 82a2 2 0 0 0 0 4h4a2 2 0 0 0 0-4zm92 4a2 2 0 0 0 0-4h-4a2 2 0 0 0 0 4z"></path>
  <path d="M122 27H88v-7a6.007 6.007 0 0 0-6-6H46a6.007 6.007 0 0 0-6 6v7H6a6 6 0 0 0-6 5.988v10.853a5.972 5.972 0 0 0 2 4.453V108a6.007 6.007 0 0 0 6 6h38.262a27.539 27.539 0 0 1-5.566-4H8a2.002 2.002 0 0 1-2-2V50.024L45.429 60.17c.869-1.166 1.76-2.32 2.64-3.45L5.498 45.765A1.99 1.99 0 0 1 4 43.84V32.988A1.996 1.996 0 0 1 6 31h116a1.996 1.996 0 0 1 2 1.988v10.853a1.99 1.99 0 0 1-1.499 1.925L79.762 56.762c.92 1.097 1.854 2.225 2.778 3.415L122 50.024V108a2.002 2.002 0 0 1-2 2H87.311a27.528 27.528 0 0 1-5.554 4H120a6.007 6.007 0 0 0 6-6V48.294a5.971 5.971 0 0 0 2-4.453V32.988A6 6 0 0 0 122 27Zm-78 0v-7a2.002 2.002 0 0 1 2-2h36a2.002 2.002 0 0 1 2 2v7Z"></path>
  <path d="M90.937 93.336c.675-11.155-4.16-20.159-10.01-28.613-3.123-4.512-6.826-7.932-9.72-12.63 0 0 1.266-7.356 2.754-10.622.536-1.174 1.653-2.235 1.63-3.63a2.127 2.127 0 0 0-1.766-2 2.441 2.441 0 0 0-.485-.047 4.466 4.466 0 0 0-2.192.719c-1.308.779-2.3 1.758-3.76 1.758a3.612 3.612 0 0 1-.81-.096 5.52 5.52 0 0 1-.339-.09c-1.231-.365-1.594-2.234-2.646-2.874a1.314 1.314 0 0 0-.69-.211c-1.126 0-1.984 1.686-2.762 2.52a3.223 3.223 0 0 1-2.286 1.214 2.519 2.519 0 0 1-1.093-.264c-1.078-.515-1.864-1.587-3.005-2.017a1.718 1.718 0 0 0-.608-.112 1.766 1.766 0 0 0-1.716 1.4c-.276 1.27.73 2.39 1.382 3.35 0 0 2.212 2.256 3.65 10.956-2.826 4.336-6.491 8.482-9.392 12.676-5.85 8.454-10.686 17.458-10.01 28.613.806 13.358 12.397 19.896 22.958 20.525 1.13.066 6.764.07 7.958 0 10.562-.63 22.151-7.167 22.958-20.525Zm-28.162-52.79a5.634 5.634 0 0 0 2.327 1.375c.193.057.388.109.584.154a7.641 7.641 0 0 0 1.702.196 7.176 7.176 0 0 0 2.117-.32A70.865 70.865 0 0 0 67.525 50h-7.36a41.132 41.132 0 0 0-1.98-7.275 7.035 7.035 0 0 0 4.59-2.18Zm4.967 69.322c-1.223.072-7.483 0-7.483 0-9.088-.541-18.55-5.937-19.203-16.774-.62-10.217 4.106-18.58 9.306-26.095 1.237-1.788 2.62-3.567 4.084-5.45 1.829-2.353 3.72-4.785 5.37-7.318l.151-.231h7.717l.117.191a63.023 63.023 0 0 0 5.692 7.545c1.475 1.758 2.868 3.418 4.146 5.263 5.198 7.513 9.924 15.875 9.305 26.096-.654 10.836-10.116 16.232-19.202 16.773Z"></path>
  <path d="M64.709 84.731c-1.905-.55-3.55-1.025-4.277-2.245a2.79 2.79 0 0 1-.05-2.888c.903-1.407 3.095-1.698 4.858-1.365a4.751 4.751 0 0 1 2.593 1.585 2 2 0 0 0 3.044-2.593 8.751 8.751 0 0 0-4.886-2.92c-.028-.006-.057-.009-.085-.014V72a2 2 0 0 0-4 0v2.308a7.268 7.268 0 0 0-4.885 3.12 6.77 6.77 0 0 0-.023 7.11c1.535 2.572 4.226 3.35 6.6 4.036 2.441.706 3.844 1.177 4.307 2.638a2.445 2.445 0 0 1-1.657 2.829 5.64 5.64 0 0 1-5.814-1.092 2 2 0 0 0-2.68 2.969 9.783 9.783 0 0 0 4.152 2.203V100a2 2 0 0 0 4 0v-1.72a8.696 8.696 0 0 0 1.931-.568 6.368 6.368 0 0 0 3.883-7.702c-1.132-3.578-4.392-4.52-7.011-5.279Z"></path>
</svg>
