<svg xmlns="http://www.w3.org/2000/svg" viewBox="0 0 3208.51 1784.4" id="investment-growth">
  <path d="M2615.91 593.31a759.62 759.62 0 0 0-206.46 28.44c-168.78-217.32-432.57-357.21-729.06-357.21-439.77 0-807.61 307.68-900.12 719.49a181.85 181.85 0 0 0-215.53 214.25c-199.74 51.34-347.39 232.66-347.39 448.45A460.85 460.85 0 0 0 282.69 1884h2872.92c135.09-136.92 218.49-325 218.49-532.5 0-418.74-339.45-758.19-758.19-758.19Z" transform="translate(-165.59 -99.6)" fill="#fccdb7"></path>
  <circle cx="1367.73" cy="592.51" r="341.33" fill="#fddecf"></circle>
  <path d="M348.73 470.78a190.51 190.51 0 0 0-183.14 138.07h366.27a190.51 190.51 0 0 0-183.13-138.07ZM848.35 470.78a190.51 190.51 0 0 0-183.14 138.07h366.27a190.51 190.51 0 0 0-183.13-138.07Z" transform="translate(-165.59 -99.6)" fill="#fddecf"></path>
  <path d="M610.32 411.64c-124.32 0-229.1 83.36-261.59 197.21h523.18C839.41 495 734.6 411.64 610.32 411.64Z" transform="translate(-165.59 -99.6)" fill="#fddecf"></path>
  <path d="M396.09 576.25a96.41 96.41 0 0 0-92.68 69.87h185.35a96.41 96.41 0 0 0-92.67-69.87ZM648.92 576.25a96.41 96.41 0 0 0-92.68 69.87h185.35a96.41 96.41 0 0 0-92.67-69.87Z" transform="translate(-165.59 -99.6)" fill="#f9f9f9"></path>
  <path d="M528.46 546.32a137.71 137.71 0 0 0-132.38 99.8h264.76a137.71 137.71 0 0 0-132.38-99.8Z" transform="translate(-165.59 -99.6)" fill="#f9f9f9"></path>
  <path d="M914.3 162.82a113.76 113.76 0 0 0-109.36 82.44h218.71a113.76 113.76 0 0 0-109.35-82.44ZM1212.64 162.82a113.76 113.76 0 0 0-109.36 82.44H1322a113.76 113.76 0 0 0-109.36-82.44Z" transform="translate(-165.59 -99.6)" fill="#fbe3b9"></path>
  <path d="M1070.5 127.5a162.49 162.49 0 0 0-156.2 117.76h312.41A162.49 162.49 0 0 0 1070.5 127.5Z" transform="translate(-165.59 -99.6)" fill="#fbe3b9"></path>
  <path d="M2895 806a113.76 113.76 0 0 0-109.36 82.44h218.71A113.76 113.76 0 0 0 2895 806ZM3193.36 806A113.76 113.76 0 0 0 3084 888.46h218.71A113.76 113.76 0 0 0 3193.36 806Z" transform="translate(-165.59 -99.6)" fill="#feeee6"></path>
  <path d="M3051.22 770.7A162.49 162.49 0 0 0 2895 888.46h312.41a162.49 162.49 0 0 0-156.19-117.76Z" transform="translate(-165.59 -99.6)" fill="#feeee6"></path>
  <path d="M2737.22 776a65.56 65.56 0 0 0-63 47.51h126.05a65.56 65.56 0 0 0-63.05-47.51ZM2909.16 776a65.56 65.56 0 0 0-63 47.51h126.05a65.56 65.56 0 0 0-63.05-47.51Z" transform="translate(-165.59 -99.6)" fill="#fddecf"></path>
  <path d="M2827.24 755.69a93.65 93.65 0 0 0-90 67.87h180.05a93.65 93.65 0 0 0-90.05-67.87Z" transform="translate(-165.59 -99.6)" fill="#fddecf"></path>
  <path d="M974 233.35A57.52 57.52 0 0 0 918.7 275h110.58A57.52 57.52 0 0 0 974 233.35ZM1124.83 233.35a57.52 57.52 0 0 0-55.29 41.65h110.58a57.52 57.52 0 0 0-55.29-41.65Z" transform="translate(-165.59 -99.6)" fill="#f9f9f9"></path>
  <path d="M1053 215.49A82.16 82.16 0 0 0 974 275h158a82.16 82.16 0 0 0-79-59.51Z" transform="translate(-165.59 -99.6)" fill="#f9f9f9"></path>
  <path d="M1513.21 512.82a19.39 19.39 0 0 0 19.39-19.39 19.39 19.39 0 0 0 19.4 19.39 19.39 19.39 0 0 0-19.39 19.39 19.39 19.39 0 0 0-19.4-19.39ZM1301.25 592.93a29.93 29.93 0 0 0 29.93-29.93 29.93 29.93 0 0 0 29.93 29.93 29.93 29.93 0 0 0-29.93 29.93 29.93 29.93 0 0 0-29.93-29.93Z" transform="translate(-165.59 -99.6)" fill="#fff"></path>
  <path d="M2292.16 673.19c.08-.56 8.12-57.21 32.32-135.18a1048.31 1048.31 0 0 1 50.31-131.09c24-51.54 51.58-98.67 82-140.08l7 5.13c-68.19 92.77-108.9 197.28-131 268.61-24 77.3-31.93 133.25-32 133.8Z" transform="translate(-165.59 -99.6)" fill="#84b5cb"></path>
  <path d="M2479.19 220.94a176.44 176.44 0 0 0-26.79 59.46 176.44 176.44 0 0 0 47.33-44.87 176.45 176.45 0 0 0 26.79-59.46 176.45 176.45 0 0 0-47.33 44.87ZM2410.93 247.79a176.44 176.44 0 0 0 23.14 61 176.44 176.44 0 0 0 1.7-65.19 176.44 176.44 0 0 0-23.14-61 176.44 176.44 0 0 0-1.7 65.19ZM2499.08 317.54a176.44 176.44 0 0 0 64-12.59 168.84 168.84 0 0 0-128 0 176.44 176.44 0 0 0 64 12.59ZM2466.63 378.8a176.45 176.45 0 0 0 64.9 6.43 168.84 168.84 0 0 0-122.51-37 176.44 176.44 0 0 0 57.61 30.57ZM2435.35 439.68a176.45 176.45 0 0 0 65.21.68 168.84 168.84 0 0 0-125.3-26 176.44 176.44 0 0 0 60.09 25.32ZM2409.8 499.86a176.45 176.45 0 0 0 65.19-1.68 168.84 168.84 0 0 0-126.16-21.48 176.44 176.44 0 0 0 60.97 23.16ZM2387.77 573.86a176.45 176.45 0 0 0 64.9 6.43 168.84 168.84 0 0 0-122.51-37 176.45 176.45 0 0 0 57.61 30.57ZM2363.75 305.27a176.44 176.44 0 0 0 44.47 47.7 168.84 168.84 0 0 0-67.54-108.7 176.45 176.45 0 0 0 23.07 61Z" transform="translate(-165.59 -99.6)" fill="#84b5cb"></path>
  <path d="M2290.68 451.63a176.44 176.44 0 0 0 59.84 25.92A168.84 168.84 0 0 0 2245.13 405a176.44 176.44 0 0 0 45.55 46.63ZM2264.15 534.21a176.44 176.44 0 0 0 64.42 10.14 168.84 168.84 0 0 0-120.2-43.93 176.44 176.44 0 0 0 55.78 33.79ZM2324.76 377.09a176.44 176.44 0 0 0 51.24 40.37 168.84 168.84 0 0 0-83.32-97.13 176.45 176.45 0 0 0 32.08 56.76Z" transform="translate(-165.59 -99.6)" fill="#84b5cb"></path>
  <path d="M2423.8 739.42c.2-.35 20.74-35.81 57.73-81.08a750.69 750.69 0 0 1 68.58-73.53c29.76-27.78 60.73-51.67 92-71l3.26 5.28c-70.17 43.3-125.24 101.76-159.08 143.18-36.67 44.88-57 79.9-57.16 80.25Z" transform="translate(-165.59 -99.6)" fill="#a0c6d7"></path>
  <path d="M2669.33 489.35a126.35 126.35 0 0 0-33.74 32.29 120.9 120.9 0 0 0 77.2-49.37 126.35 126.35 0 0 0-43.46 17.08ZM2616.8 488.86a126.35 126.35 0 0 0-1 46.69 120.9 120.9 0 0 0 19.62-89.55 126.35 126.35 0 0 0-18.62 42.86ZM2656.61 558.82a126.35 126.35 0 0 0 45.86 8.81 120.9 120.9 0 0 0-85-34.35 126.35 126.35 0 0 0 39.14 25.54ZM2618.64 590.79a126.35 126.35 0 0 0 41.36 21.68 120.91 120.91 0 0 0-71.42-57.47 126.35 126.35 0 0 0 30.06 35.79ZM2581.53 622.81a126.35 126.35 0 0 0 43.11 17.95 120.91 120.91 0 0 0-76.21-50.9 126.35 126.35 0 0 0 33.1 32.95ZM2548.42 655.91a126.35 126.35 0 0 0 43.73 16.38 120.9 120.9 0 0 0-78-48.11 126.35 126.35 0 0 0 34.27 31.73ZM2513.93 699.13a126.35 126.35 0 0 0 41.36 21.68 120.91 120.91 0 0 0-71.42-57.43 126.35 126.35 0 0 0 30.06 35.75ZM2570.05 514.36a126.35 126.35 0 0 0 16.72 43.6 120.9 120.9 0 0 0-15.67-90.29 126.35 126.35 0 0 0-1.05 46.69Z" transform="translate(-165.59 -99.6)" fill="#a0c6d7"></path>
  <path d="M2482.27 591.93A126.35 126.35 0 0 0 2515 625.2a120.91 120.91 0 0 0-50.49-76.48 126.35 126.35 0 0 0 17.76 43.21ZM2442.5 639.64a126.35 126.35 0 0 0 40.05 24 120.9 120.9 0 0 0-68-61.42 126.35 126.35 0 0 0 27.95 37.42ZM2524.9 551.59a126.35 126.35 0 0 0 23.18 40.54 120.9 120.9 0 0 0-29.26-86.85 126.35 126.35 0 0 0 6.08 46.31Z" transform="translate(-165.59 -99.6)" fill="#a0c6d7"></path>
  <path d="m2151.86 494.1-7-1.79c.08-.3 8-30.88 25.23-71.27 15.94-37.3 43.39-90.91 83.62-134.47l5.3 4.9c-39.53 42.81-66.57 95.63-82.28 132.41-17.04 39.88-24.79 69.92-24.87 70.22Z" transform="translate(-165.59 -99.6)" fill="#0a7850"></path>
  <circle cx="2261.09" cy="285.72" r="13.38" transform="rotate(-76.03 2114.606 341.832)" fill="#0a7850"></circle>
  <circle cx="2212.64" cy="267.04" r="13.38" transform="rotate(-76.03 2066.158 323.147)" fill="#0a7850"></circle>
  <circle cx="2258.65" cy="376.62" r="13.38" transform="rotate(-76.03 2112.163 432.726)" fill="#0a7850"></circle>
  <path d="m2218.75 343.41-7.12-1.17c.06-.36 5.81-36.38-.79-67.39l7.06-1.5c6.89 32.36 1.1 68.54.85 70.06ZM2194.47 384.14l-2.55-6.75c1-.38 25.23-9.33 60.56-6l-.68 7.18c-33.69-3.18-57.1 5.43-57.33 5.57Z" transform="translate(-165.59 -99.6)" fill="#0a7850"></path>
  <path d="M1927.42 338.03V95.64M1927.42 191.4l40.14-40.14M1927.42 233.94l-41.61-41.61" fill="none" stroke="#3b3e54" stroke-linecap="round" stroke-linejoin="round" stroke-width="11px"></path>
  <path d="M2093 99.6v157.5s32.86-35.26 32.86-78.75S2093 99.6 2093 99.6Z" transform="translate(-165.59 -99.6)" fill="#0a7850"></path>
  <path d="M2060.16 178.35c0 43.49 32.86 78.75 32.86 78.75V99.6s-32.86 35.26-32.86 78.75Z" transform="translate(-165.59 -99.6)" fill="#0c9463"></path>
  <path d="m2217.55 166.8-98.72 98.72s42.69-1.5 70-28.77 28.72-69.95 28.72-69.95Z" transform="translate(-165.59 -99.6)" fill="#0a7850"></path>
  <path d="M2147.59 195.57c-27.26 27.26-28.77 70-28.77 70l98.72-98.72s-42.69 1.46-69.95 28.72Z" transform="translate(-165.59 -99.6)" fill="#0c9463"></path>
  <path d="m2060.17 300.69-119.9-119.9s1.83 51.85 34.94 85 84.96 34.9 84.96 34.9Z" transform="translate(-165.59 -99.6)" fill="#0a7850"></path>
  <path d="M2025.23 215.73c-33.11-33.11-85-34.94-85-34.94l119.9 119.9s-1.79-51.85-34.9-84.96Z" transform="translate(-165.59 -99.6)" fill="#0c9463"></path>
  <path d="m1927.42 268.9 19.91-19.9" fill="none" stroke="#3b3e54" stroke-linecap="round" stroke-linejoin="round" stroke-width="11px"></path>
  <path d="M2057 406.18a40.81 40.81 0 0 0-39.23 29.57h78.45a40.81 40.81 0 0 0-39.22-29.57ZM2164 406.18a40.81 40.81 0 0 0-39.23 29.57h78.45a40.81 40.81 0 0 0-39.22-29.57Z" transform="translate(-165.59 -99.6)" fill="#0c9463"></path>
  <path d="M2113.06 393.51a58.29 58.29 0 0 0-56 42.24h112.06a58.29 58.29 0 0 0-56.06-42.24Z" transform="translate(-165.59 -99.6)" fill="#0c9463"></path>
  <path d="M650.63 1556.71a189.89 189.89 0 0 0-182.54 137.62h365.09a189.89 189.89 0 0 0-182.55-137.62ZM1148.63 1556.71a189.89 189.89 0 0 0-182.54 137.62h365.09a189.89 189.89 0 0 0-182.55-137.62Z" transform="translate(-165.59 -99.6)" fill="#faad8a"></path>
  <path d="M911.37 1497.75c-123.88 0-228.35 83.08-260.74 196.57h521.48c-32.38-113.48-136.85-196.57-260.74-196.57ZM606.77 1231.32s-25.35-18.39-31.41-56-38.68-36.78-45.37-19.38 7.24 55.06 76.78 75.38ZM641.42 1235.72s-7.79-30.33 11.55-63.19-6.33-53-22.58-43.87-29.59 47.09 11.03 107.06ZM640.26 1240.09s-27.29 15.35-37.64 52.06-42.65 32.09-47.3 14 13.54-53.92 84.94-66.06ZM702.2 1263.15s-27.29 15.35-37.64 52.06-42.65 32.09-47.3 14 13.53-53.92 84.94-66.06ZM752.34 1298.17s-27.29 15.35-37.64 52.06-42.65 32.09-47.3 14 13.54-53.91 84.94-66.06ZM812.53 1344.2s-27.29 15.35-37.64 52.06-42.65 32.09-47.3 14 13.54-53.92 84.94-66.06ZM701.62 1263s-7.79-30.33 11.55-63.19-6.33-53-22.58-43.87S661 1203.08 701.62 1263ZM759.33 1299.92s-7.79-30.33 11.55-63.19-6.33-53-22.58-43.87-29.59 47.14 11.03 107.06ZM813.71 1341.93s-7.79-30.33 11.55-63.19-6.33-53-22.58-43.87-29.59 47.13 11.03 107.06Z" transform="translate(-165.59 -99.6)" fill="#faad8a"></path>
  <path d="M1002.71 1568.18a3.24 3.24 0 0 1-4-1.4c-.4-.69-40.51-70.13-110.3-146.42-64.29-70.28-167.63-160.95-294.9-193.74a3.24 3.24 0 0 1 1.62-6.27c128.85 33.2 233.26 124.78 298.16 195.75 70.24 76.81 110.64 146.76 111 147.46a3.24 3.24 0 0 1-1.2 4.42 3.3 3.3 0 0 1-.38.2ZM947.45 1053.22s-10.5-31.18 7.24-67.1-10.71-55-27-44.22-27.42 51.61 19.76 111.32ZM974.44 1078.09s11.8-30.71 48.38-47.06 26.86-49.23 7.39-51.3-54.03 22.27-55.77 98.36ZM970.78 1081.12s-32.71-3.48-63.93 21.64-56.06 1.49-49-16.79 44.41-37.97 112.93-4.85ZM1009.76 1138.58s-32.71-3.48-63.93 21.64-56.06 1.49-49-16.79 44.41-37.94 112.93-4.85ZM1031.35 1199.11s-32.71-3.48-63.93 21.64-56.06 1.49-49-16.79 44.41-37.96 112.93-4.85ZM1054.85 1275.16s-32.71-3.48-63.93 21.64-56.06 1.49-49-16.79 44.41-37.94 112.93-4.85ZM1009.32 1138.14s11.8-30.71 48.38-47.06 26.86-49.23 7.39-51.3-54.02 22.29-55.77 98.36ZM1036.27 1204.85s11.8-30.71 48.38-47.06 26.86-49.23 7.39-51.3-54.04 22.29-55.77 98.36ZM1057.24 1273.94s11.8-30.71 48.38-47.06 26.86-49.23 7.39-51.3-54.01 22.29-55.77 98.36Z" transform="translate(-165.59 -99.6)" fill="#faad8a"></path>
  <path d="m1087 1468.51-6.84-.64c-1.06-24.55-3.1-52-6.7-81.3a890.82 890.82 0 0 0-20.9-111.57c-.09-.37-.18-.72-.28-1.09a735.07 735.07 0 0 0-23.51-75l-.5-1.33a619.93 619.93 0 0 0-25.84-59.15q-1.06-2.13-2.16-4.24A521.83 521.83 0 0 0 969 1081l-.74-1.09q-10.13-15-21.52-29.32-3.81-4.77-7.76-9.47a3.4 3.4 0 0 1 5.2-4.38l.5.59a466.58 466.58 0 0 1 29.79 39.67l.27.39a533.8 533.8 0 0 1 34.62 59.76l.21.42a630.45 630.45 0 0 1 26.87 62.53c.3.8.59 1.61.88 2.41 7.91 21.68 14.57 43.34 20.18 64.53q.54 2 1.06 4a896.18 896.18 0 0 1 21.63 114.85c3.65 29.76 5.7 57.71 6.81 82.62Z" transform="translate(-165.59 -99.6)" fill="#faad8a"></path>
  <path d="M766.62 1655a81.92 81.92 0 0 0-78.75 59.37h157.5a81.92 81.92 0 0 0-78.75-59.37Z" transform="translate(-165.59 -99.6)" fill="#ff908c"></path>
  <path d="M664.26 1629.53a117 117 0 0 0-112.49 84.8h225a117 117 0 0 0-112.51-84.8Z" transform="translate(-165.59 -99.6)" fill="#ff908c"></path>
  <path d="M3047.34 1516.17H748.75v78.68h2369.8v-78.68h-71.21z" fill="#4991b2"></path>
  <path d="M2976.13 1437.49H819.96v78.68h2227.38v-78.68h-71.21z" fill="#5e9ebb"></path>
  <path d="M2904.92 1358.81H891.18v78.68h2084.95v-78.68h-71.21z" fill="#6aa6c0"></path>
  <path d="M2833.7 1280.13H962.39v78.68h1942.53v-78.68h-71.22z" fill="#73aac3"></path>
  <path d="M2762.49 1201.45H1033.6v78.68h1800.1v-78.68h-71.21z" fill="#84b5cb"></path>
  <path d="M2691.28 1122.77H1104.81v78.68h1657.68v-78.68h-71.21z" fill="#96c0d2"></path>
  <path d="M2620.07 1044.09H1176.03v78.68h1515.25v-78.68h-71.21z" fill="#a0c6d7"></path>
  <path d="M2548.86 965.41H1247.24v78.68h1372.83v-78.68h-71.21z" fill="#aaccdb"></path>
  <path d="M2477.64 886.73H1318.45v78.68h1230.41v-78.68h-71.22z" fill="#bad5e2"></path>
  <path d="M2406.43 808.05H1389.66v78.68h1087.98v-78.68h-71.21z" fill="#c6dde7"></path>
  <path d="M2335.22 729.37h-874.34v78.68h945.55v-78.68h-71.21z" fill="#cde1ea"></path>
  <path d="M2264.01 650.69H1532.09v78.68h803.13v-78.68h-71.21z" fill="#d9e8ef"></path>
  <path d="M2192.79 572.01H1603.3v78.68h660.71v-78.68h-71.22zM2121.58 493.33h-447.07v78.68h518.28v-78.68h-71.21zM2050.37 414.65h-304.65v78.68h375.86v-78.68h-71.21z" fill="#ddebf1"></path>
  <path d="M1933.65 335.97h-116.71v78.68h233.43v-78.68h-116.72z" fill="#ddebf1"></path>
  <path d="M1110.63 1668a80.33 80.33 0 0 0-77.22 58.21h154.43a80.32 80.32 0 0 0-77.21-58.21ZM1321.28 1668a80.33 80.33 0 0 0-77.22 58.21h154.44a80.33 80.33 0 0 0-77.22-58.21Z" transform="translate(-165.59 -99.6)" fill="#fddecf"></path>
  <path d="M1220.92 1643.07a114.74 114.74 0 0 0-110.29 83.15h220.59a114.74 114.74 0 0 0-110.3-83.15Z" transform="translate(-165.59 -99.6)" fill="#fddecf"></path>
  <path d="M2384.93 1629a113.12 113.12 0 0 0-108.74 82h217.48a113.12 113.12 0 0 0-108.74-82Z" transform="translate(-165.59 -99.6)" fill="#ff908c"></path>
  <path d="M2540.26 1593.91A161.58 161.58 0 0 0 2384.93 1711h310.65a161.58 161.58 0 0 0-155.32-117.09Z" transform="translate(-165.59 -99.6)" fill="#ff908c"></path>
  <path d="M1909.33 1180.41a57.52 57.52 0 0 0-55.29 41.68h110.58a57.52 57.52 0 0 0-55.29-41.68ZM2060.17 1180.41a57.52 57.52 0 0 0-55.29 41.68h110.58a57.52 57.52 0 0 0-55.29-41.68Z" transform="translate(-165.59 -99.6)" fill="#4991b2"></path>
  <path d="M1988.3 1162.55a82.16 82.16 0 0 0-79 59.54h158a82.16 82.16 0 0 0-79-59.54Z" transform="translate(-165.59 -99.6)" fill="#4991b2"></path>
  <path d="M2229.35 801.61a38.59 38.59 0 0 0-37.1 28h74.19a38.59 38.59 0 0 0-37.09-28ZM2330.55 801.61a38.59 38.59 0 0 0-37.1 28h74.19a38.59 38.59 0 0 0-37.09-28Z" transform="translate(-165.59 -99.6)" fill="#aaccdb"></path>
  <path d="M2282.34 789.63a55.12 55.12 0 0 0-53 39.95h106a55.12 55.12 0 0 0-53-39.95Z" transform="translate(-165.59 -99.6)" fill="#aaccdb"></path>
  <path d="M2524.66 1418.44A14.5 14.5 0 0 0 2506 1438c-14.52 13.93-26.19 30.65-33.44 42.26a417.68 417.68 0 0 0-1.16-50.59 14.53 14.53 0 1 0-7.73 1.54c2.95 35.07.78 70.22-3.75 102.34a169.34 169.34 0 0 0-37.55-33.15 14.54 14.54 0 1 0-3.62 7c23.3 15.44 36.21 32.2 39.55 36.89-11.27 70.46-32.8 123.82-33.13 124.64l7.25 3c.13-.32 13-32.06 24.12-78.4a600.07 600.07 0 0 0 15.11-96.1c2.32-4.35 17.81-32.52 39.48-53.46a14.52 14.52 0 1 0 13.56-25.53ZM2379.65 1586.59a600.07 600.07 0 0 0-40.73-88.35c-.48-4.91-3.22-36.91 3.2-66.37a14.56 14.56 0 1 0-7.56-2.08c-4.35 19.64-4.79 40-4.38 53.71a417.62 417.62 0 0 0-29-41.45 14.53 14.53 0 1 0-5.58 5.56c21.9 27.54 39.59 58 53.64 87.24a169.32 169.32 0 0 0-49.63-6.75 14.54 14.54 0 1 0 .87 7.83c28-.08 48 6.72 53.37 8.76 29.7 64.88 41.38 121.22 41.56 122.08l7.67-1.55c-.08-.35-6.96-33.92-23.43-78.63Z" transform="translate(-165.59 -99.6)" fill="#ff908c"></path>
  <path d="M1585.17 903.89a4.75 4.75 0 0 1-3.78-6.32l11.61-32.11a4.75 4.75 0 1 1 8.93 3.23l-11.63 32.12a4.75 4.75 0 0 1-5.13 3.08Z" transform="translate(-165.59 -99.6)" fill="#fff"></path>
  <path d="M1579.14 897.63s-2.94 12.21 0 12.55 45.27 1.62 45.52-.34c.85-6.7-33.76-12.89-37.15-12.21s-7.99-1.77-8.37 0Z" transform="translate(-165.59 -99.6)" fill="#1a1c2e"></path>
  <path d="M1491.1 815.19s107.21-16.86 109-12-16.16 81.63-16.16 81.63h16.28s17.42-58.12 22.62-71.87 8.75-35.25-7.66-35c-15.32.19-120.57 6.81-120.57 6.81Z" transform="translate(-165.59 -99.6)" fill="#3b3e54"></path>
  <path d="M1645.57 622.26s10-23.71 6.85-29.4-15.13 15.81-12.92 31.2Z" transform="translate(-165.59 -99.6)" fill="#fff"></path>
  <path d="m1509.2 658.17 18.07-9.75c.08.07.14.18.22.25 54 62.75 88.35 30.21 110-31.86 4.15 1.74 8.21 3.57 12.14 5.12-21.34 76-67.52 96.55-131 45.36-5.06-3.98-8.22-6.46-9.43-9.12Z" transform="translate(-165.59 -99.6)" fill="#ff908c"></path>
  <path d="M1527.72 588.89s10.77 4.5 8 11.32-12.41-5.32-12.41-5.32-.37-8.89 4.41-6Z" transform="translate(-165.59 -99.6)" fill="#1a1c2e"></path>
  <path d="M1435.61 1057.41a4.76 4.76 0 0 1-3.78-6.32l11.63-32.12a4.75 4.75 0 0 1 8.93 3.23l-11.63 32.12a4.75 4.75 0 0 1-5.15 3.09Z" transform="translate(-165.59 -99.6)" fill="#fff"></path>
  <path d="M1436.24 1032.45a149.1 149.1 0 0 0 13.6 7.15c30.21-90 45.21-186.73 74.93-272q-19.31-6.26-38.85-11.9c-25.22 91.41-12.75 172.88-49.68 276.75Z" transform="translate(-165.59 -99.6)" fill="#3b3e54"></path>
  <path d="M1429.57 1051.15s-2.94 12.21 0 12.55 45.27 1.62 45.52-.34c.85-6.7-33.76-12.89-37.15-12.21s-7.94-1.77-8.37 0Z" transform="translate(-165.59 -99.6)" fill="#1a1c2e"></path>
  <path d="M1537.28 668.84c3-18.48-8.31-28.42-9.31-29-7.31-4.53-14.17-7.45-22.36-4.08-6.68 2.75-9.52 6.22-12.58 14.15-2.27 5.89-2 8.24-3.45 17.52-6.66 42.28-9.74 84.95-14.5 127.95q8.54.39 17.09.21a74.1 74.1 0 0 0 9.48-.68c12.58-1.91 23.77-9.23 36.25-11.76 1.24-.25 2.5-.45 3.75-.62-7.25-40.61-11.19-71.81-4.37-113.69Z" transform="translate(-165.59 -99.6)" fill="#ff908c"></path>
  <path d="M1507.87 615.59c6.62 12.76 20.86 18.49 28.66 14.45s6.19-16.33-.43-29.09S1519.8 585 1512 589s-10.74 13.83-4.13 26.59Z" transform="translate(-165.59 -99.6)" fill="#fff"></path>
  <path d="M1509.8 613.78h15.09c0 2.07-.36 21.71-1.84 29-.77 2.21-4.6 2.88-8.55 1.5-3.55-1.24-6-3.71-5.87-5.81.88-4.37 1.17-17.47 1.17-24.69Z" transform="translate(-165.59 -99.6)" fill="#fff"></path>
  <path d="M1514.77 620.42c2.44-2.17 4.3.19 9.31 3.69s14.57 3.67 16.45-8.68c.8-5.22 2.47-1.08 3.5 2.29a16.3 16.3 0 0 1 .63 7.64 11 11 0 0 1-6.25 8.3c-5.19 2.69-12.46 2.2-19.29-1.25a9.48 9.48 0 0 1-5.38-9.7 3.78 3.78 0 0 1 1.03-2.29Z" transform="translate(-165.59 -99.6)" fill="#1a1c2e"></path>
  <path d="m1541 615-.53.22c-2.75 1.16-15.25 6.64-16.93 11.42-1.89 5.38 6.58-1.5 9.26-4.8s5.46-2.55 8.07-3 4.06-3.6.13-3.84ZM1501.81 608.43s-1.54-9.57 3.32-15.84 17.44-12.15 26-2.22c0 0 5.41 7.61-4.32 13.36s-10.24-.46-13.08 6.78-9 5.41-9.43 7Z" transform="translate(-165.59 -99.6)" fill="#1a1c2e"></path>
  <path d="M1503.63 622c1.54 3 6.46 5.24 8.61 4.12s1.44-3.8-.1-6.77-4.72-4.84-6.87-3.73-3.18 3.45-1.64 6.38ZM1424.39 765.81s9.62 23.85 15.83 25.7-.38-21.88-12.78-31.26Z" transform="translate(-165.59 -99.6)" fill="#fff"></path>
  <path d="M1421.77 768.86c3.9-1.66 8.07-3.2 12.24-4.91-28.33-59.28-26.83-106.59 55.69-100 12.62 1 14.11-1.67 11.61-11.51 2-.91 2-.88 0 0-2.5-9.84-6-9.3-18.39-8-81.14 8.33-99.5 55.4-61.15 124.42Z" transform="translate(-165.59 -99.6)" fill="#ff908c"></path>
  <path d="M1504.69 430.85h76.65v109.22h-76.65z" fill="#4991b2"></path>
  <path d="M1708.61 578.74c0 23.28-15 42.15-33.41 42.15s-33.41-18.87-33.41-42.15 15-34.17 33.41-34.17 33.41 10.89 33.41 34.17Z" transform="translate(-165.59 -99.6)" stroke="#4991b2" stroke-miterlimit="10" stroke-width="5px" fill="none"></path>
  <path d="M1732.97 568.88h51.54v8.86h-51.54z" transform="rotate(-46.05 1558.974 718.316)" fill="#4991b2"></path>
  <path d="m1599.81 466.12 41.62-13.98-29.19-28.13-12.43 42.11z" fill="#4991b2"></path>
  <path d="M1694.25 593.81c0-7.85 14.21-27.07 14.21-27.07s14.21 19.23 14.21 27.07a14.21 14.21 0 0 1-28.41 0Z" transform="translate(-165.59 -99.6)" fill="#ddebf1"></path>
  <path d="M1640.35 1063.27a29.93 29.93 0 0 0 29.93-29.93 29.93 29.93 0 0 0 29.93 29.93 29.93 29.93 0 0 0-29.93 29.93 29.93 29.93 0 0 0-29.93-29.93ZM1152.72 979.61a19.39 19.39 0 0 0 19.39-19.39 19.39 19.39 0 0 0 19.39 19.39 19.39 19.39 0 0 0-19.38 19.39 19.39 19.39 0 0 0-19.4-19.39ZM2256.8 1344.2a19.39 19.39 0 0 0 19.39-19.39 19.39 19.39 0 0 0 19.39 19.39 19.39 19.39 0 0 0-19.39 19.39 19.39 19.39 0 0 0-19.39-19.39ZM2837.48 960.21a19.39 19.39 0 0 0 19.39-19.39 19.39 19.39 0 0 0 19.39 19.39 19.39 19.39 0 0 0-19.39 19.39 19.39 19.39 0 0 0-19.39-19.39ZM1469.23 1187.83a19.39 19.39 0 0 0 19.39-19.39 19.39 19.39 0 0 0 19.39 19.39 19.39 19.39 0 0 0-19.39 19.39 19.39 19.39 0 0 0-19.39-19.39Z" transform="translate(-165.59 -99.6)" fill="#fff"></path>
</svg>
