<svg xmlns="http://www.w3.org/2000/svg" width="64" height="64" fill-rule="evenodd" stroke-linejoin="round" stroke-miterlimit="2" clip-rule="evenodd" id="investment">
  <path fill="#fa890f" d="M15,46C15,45.47 14.789,44.961 14.414,44.586C14.039,44.211 13.53,44 13,44C11.778,44 10.222,44 9,44C8.47,44 7.961,44.211 7.586,44.586C7.211,44.961 7,45.47 7,46C7,47.986 7,51.014 7,53C7,53.53 7.211,54.039 7.586,54.414C7.961,54.789 8.47,55 9,55C10.222,55 11.778,55 13,55C13.53,55 14.039,54.789 14.414,54.414C14.789,54.039 15,53.53 15,53C15,51.014 15,47.986 15,46Z"></path>
  <path fill="#ffbc15" d="M29,42C29,41.47 28.789,40.961 28.414,40.586C28.039,40.211 27.53,40 27,40C25.778,40 24.222,40 23,40C22.47,40 21.961,40.211 21.586,40.586C21.211,40.961 21,41.47 21,42C21,44.871 21,50.129 21,53C21,53.53 21.211,54.039 21.586,54.414C21.961,54.789 22.47,55 23,55C24.222,55 25.778,55 27,55C27.53,55 28.039,54.789 28.414,54.414C28.789,54.039 29,53.53 29,53C29,50.129 29,44.871 29,42Z"></path>
  <path fill="#fa890f" d="M43,38C43,36.895 42.105,36 41,36C39.778,36 38.222,36 37,36C35.895,36 35,36.895 35,38C35,41.65 35,49.35 35,53C35,54.105 35.895,55 37,55C38.222,55 39.778,55 41,55C42.105,55 43,54.105 43,53C43,49.35 43,41.65 43,38Z"></path>
  <path fill="#ffbc15" d="M57,32C57,31.47 56.789,30.961 56.414,30.586C56.039,30.211 55.53,30 55,30C53.778,30 52.222,30 51,30C50.47,30 49.961,30.211 49.586,30.586C49.211,30.961 49,31.47 49,32C49,36.683 49,48.317 49,53C49,53.53 49.211,54.039 49.586,54.414C49.961,54.789 50.47,55 51,55C52.222,55 53.778,55 55,55C55.53,55 56.039,54.789 56.414,54.414C56.789,54.039 57,53.53 57,53C57,48.317 57,36.683 57,32Z"></path>
  <path fill="#1fba65" d="M43.964,13.793C43.964,13.793 42.863,12.691 41.586,11.414C40.993,10.821 40.833,9.92 41.185,9.159C41.538,8.398 42.329,7.938 43.165,8.007C46.176,8.256 49.714,8.549 51.764,8.718C52.747,8.799 53.524,9.585 53.594,10.57C53.739,12.603 53.987,16.094 54.198,19.061C54.257,19.894 53.793,20.676 53.033,21.022C52.274,21.369 51.379,21.207 50.789,20.617C49.421,19.249 48.207,18.036 48.207,18.036L39.121,27.121C38.559,27.684 37.796,28 37,28L22,28C22,28 15.495,32.879 12.4,35.2C11.516,35.863 10.263,35.684 9.6,34.8C9.214,34.285 8.786,33.715 8.4,33.2C7.737,32.316 7.916,31.063 8.8,30.4C12.067,27.95 19.2,22.6 19.2,22.6C19.719,22.211 20.351,22 21,22L35.757,22L43.964,13.793Z"></path>
</svg>
